G75*
%MOIN*%
%OFA0B0*%
%FSLAX24Y24*%
%IPPOS*%
%LPD*%
%AMOC8*
5,1,8,0,0,1.08239X$1,22.5*
%
%ADD10C,0.0000*%
%ADD11R,0.0177X0.0394*%
%ADD12R,0.0433X0.0394*%
%ADD13R,0.0394X0.0433*%
%ADD14R,0.0630X0.0866*%
%ADD15R,0.0236X0.0354*%
%ADD16R,0.0591X0.0512*%
%ADD17R,0.0512X0.0591*%
%ADD18R,0.0866X0.0630*%
%ADD19R,0.0217X0.0472*%
%ADD20R,0.0394X0.0394*%
%ADD21R,0.0394X0.0551*%
%ADD22R,0.0709X0.0551*%
%ADD23OC8,0.0850*%
%ADD24R,0.0591X0.0157*%
%ADD25C,0.0160*%
%ADD26C,0.0238*%
%ADD27C,0.0240*%
%ADD28C,0.0079*%
%ADD29C,0.0120*%
D10*
X001917Y001425D02*
X001917Y014023D01*
X010185Y014023D01*
X010185Y001425D01*
X001917Y001425D01*
D11*
X002793Y008256D03*
X003049Y008256D03*
X003305Y008256D03*
X003561Y008256D03*
X003561Y009870D03*
X003305Y009870D03*
X003049Y009870D03*
X002793Y009870D03*
X007124Y007193D03*
X007380Y007193D03*
X007635Y007193D03*
X007891Y007193D03*
X007891Y005578D03*
X007635Y005578D03*
X007380Y005578D03*
X007124Y005578D03*
D12*
X007114Y004988D03*
X007114Y004319D03*
X007980Y003334D03*
X007980Y002665D03*
X009082Y002823D03*
X009082Y003492D03*
X009102Y005992D03*
X008433Y005992D03*
X008452Y006602D03*
X008452Y007271D03*
X008137Y009358D03*
X008137Y010027D03*
X008137Y010697D03*
X008137Y011366D03*
X009141Y010716D03*
X008767Y010027D03*
X008767Y009358D03*
X009811Y010716D03*
X009791Y011956D03*
X009791Y012626D03*
X008787Y013078D03*
X008118Y013078D03*
X007527Y013078D03*
X006858Y013078D03*
X004673Y009949D03*
X004279Y010460D03*
X004279Y011130D03*
X003492Y011130D03*
X003492Y010460D03*
X002862Y010460D03*
X002862Y011130D03*
X004673Y009279D03*
X004752Y008689D03*
X004752Y008019D03*
X005303Y008019D03*
X005303Y008689D03*
X005519Y006701D03*
X006189Y006701D03*
X006011Y005618D03*
X006011Y004949D03*
X004752Y004791D03*
X004752Y005460D03*
X004200Y005460D03*
X004200Y004791D03*
X003511Y005362D03*
X002842Y005362D03*
X003315Y013787D03*
X003984Y013787D03*
D13*
X003984Y013236D03*
X003984Y012606D03*
X003315Y012606D03*
X003315Y013236D03*
X002232Y011130D03*
X002232Y010460D03*
X002232Y009870D03*
X002232Y009201D03*
X002232Y008531D03*
X002232Y007862D03*
X002232Y005854D03*
X002232Y005185D03*
X003177Y003964D03*
X003177Y003295D03*
X004122Y006838D03*
X004122Y007508D03*
X004122Y008019D03*
X004122Y008689D03*
X004122Y009279D03*
X004122Y009949D03*
X004752Y007429D03*
X004752Y006760D03*
X005834Y007252D03*
X006504Y007252D03*
X006563Y005618D03*
X006563Y004949D03*
X007665Y004830D03*
X007665Y004161D03*
X008196Y004102D03*
X008196Y004732D03*
X008433Y005362D03*
X008866Y004732D03*
X008866Y004102D03*
X008531Y003492D03*
X008531Y002823D03*
X007429Y002665D03*
X007429Y003334D03*
X006878Y002390D03*
X006878Y001720D03*
X009102Y005362D03*
X009082Y006602D03*
X009082Y007271D03*
X009141Y011346D03*
X009811Y011346D03*
X008787Y013708D03*
X008118Y013708D03*
X007527Y013708D03*
X006858Y013708D03*
D14*
X007035Y008354D03*
X008137Y008354D03*
D15*
X007567Y011602D03*
X007193Y011602D03*
X006819Y011602D03*
X006819Y012508D03*
X007567Y012508D03*
D16*
X004830Y012941D03*
X004830Y013689D03*
X002311Y013610D03*
X002311Y012862D03*
X009004Y008728D03*
X009004Y007980D03*
X009791Y007980D03*
X009791Y008728D03*
X009791Y006051D03*
X009791Y005303D03*
X009791Y003610D03*
X009791Y002862D03*
D17*
X006149Y010008D03*
X006149Y010795D03*
X006149Y011582D03*
X005401Y011582D03*
X005401Y010795D03*
X005401Y010008D03*
X004181Y011897D03*
X003433Y011897D03*
X008393Y012055D03*
X009141Y012055D03*
D18*
X005854Y012370D03*
X005854Y013472D03*
D19*
X003551Y007055D03*
X003177Y007055D03*
X002803Y007055D03*
X002803Y006031D03*
X003551Y006031D03*
D20*
X004043Y006149D03*
X004830Y006149D03*
X002232Y006464D03*
X002232Y007252D03*
D21*
X006819Y010441D03*
X007193Y009575D03*
X007567Y010441D03*
D22*
X006169Y009260D03*
X006169Y007921D03*
D23*
X009633Y009850D03*
X009712Y013551D03*
X009712Y004496D03*
X009712Y001897D03*
X008689Y001897D03*
X002389Y001897D03*
X002389Y002921D03*
X002389Y003945D03*
X002468Y011976D03*
D24*
X003836Y003994D03*
X003836Y003738D03*
X003836Y003482D03*
X003836Y003226D03*
X003836Y002970D03*
X003836Y002714D03*
X003836Y002458D03*
X003836Y002202D03*
X003836Y001947D03*
X003836Y001691D03*
X006139Y001691D03*
X006139Y001947D03*
X006139Y002202D03*
X006139Y002458D03*
X006139Y002714D03*
X006139Y002970D03*
X006139Y003226D03*
X006139Y003482D03*
X006139Y003738D03*
X006139Y003994D03*
D25*
X006011Y004949D02*
X006563Y004949D01*
X006563Y005618D02*
X006011Y005618D01*
X004945Y004414D02*
X004945Y004177D01*
X005062Y004060D01*
X005339Y003783D01*
X005339Y002759D01*
X005456Y002642D01*
X005584Y002514D01*
X005704Y002514D01*
X005704Y001985D01*
X005669Y001999D01*
X005566Y001999D01*
X005471Y001960D01*
X005398Y001887D01*
X005359Y001791D01*
X005359Y001688D01*
X005393Y001605D01*
X005219Y001605D01*
X005286Y001672D01*
X005326Y001767D01*
X005326Y001870D01*
X005286Y001965D01*
X005213Y002038D01*
X005118Y002078D01*
X005015Y002078D01*
X004920Y002038D01*
X004847Y001965D01*
X004824Y001911D01*
X004690Y001911D01*
X004696Y001925D01*
X004696Y002028D01*
X004656Y002123D01*
X004583Y002196D01*
X004488Y002235D01*
X004385Y002235D01*
X004290Y002196D01*
X004271Y002177D01*
X004271Y002777D01*
X004276Y002781D01*
X004299Y002822D01*
X004311Y002868D01*
X004311Y002970D01*
X003836Y002970D01*
X003836Y002970D01*
X004311Y002970D01*
X004311Y003073D01*
X004307Y003089D01*
X004511Y003293D01*
X004616Y003398D01*
X004616Y004255D01*
X004417Y004454D01*
X004420Y004454D01*
X004425Y004450D01*
X004421Y004450D01*
X004425Y004450D02*
X004466Y004426D01*
X004511Y004414D01*
X004733Y004414D01*
X004733Y004773D01*
X004770Y004773D01*
X004770Y004414D01*
X004945Y004414D01*
X004945Y004291D02*
X004580Y004291D01*
X004616Y004133D02*
X004989Y004133D01*
X005148Y003974D02*
X004616Y003974D01*
X004616Y003816D02*
X005306Y003816D01*
X005339Y003657D02*
X004616Y003657D01*
X004616Y003499D02*
X005339Y003499D01*
X005339Y003340D02*
X004558Y003340D01*
X004400Y003182D02*
X005339Y003182D01*
X005339Y003023D02*
X004311Y003023D01*
X004311Y002865D02*
X005339Y002865D01*
X005392Y002706D02*
X004271Y002706D01*
X004271Y002548D02*
X005551Y002548D01*
X005704Y002389D02*
X004271Y002389D01*
X004271Y002231D02*
X004374Y002231D01*
X004499Y002231D02*
X005704Y002231D01*
X005704Y002072D02*
X005131Y002072D01*
X005002Y002072D02*
X004677Y002072D01*
X004691Y001914D02*
X004826Y001914D01*
X004939Y001691D02*
X005067Y001819D01*
X004939Y001691D02*
X003836Y001691D01*
X003836Y001947D02*
X004407Y001947D01*
X004437Y001976D01*
X003836Y002202D02*
X002694Y002202D01*
X002389Y001897D01*
X002896Y001605D02*
X002954Y001663D01*
X002954Y001982D01*
X003401Y001982D01*
X003401Y001810D01*
X003401Y001605D01*
X002896Y001605D01*
X002954Y001755D02*
X003401Y001755D01*
X003401Y001914D02*
X002954Y001914D01*
X002852Y002458D02*
X002389Y002921D01*
X002852Y002458D02*
X003836Y002458D01*
X003836Y002714D02*
X003462Y002714D01*
X003256Y002921D01*
X003256Y003216D01*
X003177Y003295D01*
X003177Y003393D01*
X003158Y003946D02*
X002800Y003946D01*
X002800Y003925D01*
X002409Y003925D01*
X002409Y003965D01*
X002369Y003965D01*
X002369Y004550D01*
X002139Y004550D01*
X002097Y004508D01*
X002097Y004788D01*
X002213Y004788D01*
X002213Y005166D01*
X002250Y005166D01*
X002250Y004788D01*
X002452Y004788D01*
X002498Y004801D01*
X002539Y004824D01*
X002573Y004858D01*
X002596Y004899D01*
X002609Y004945D01*
X002609Y004985D01*
X002824Y004985D01*
X002824Y005344D01*
X002861Y005344D01*
X002861Y004985D01*
X002997Y004985D01*
X002997Y004422D01*
X003058Y004361D01*
X002956Y004361D01*
X002910Y004349D01*
X002869Y004325D01*
X002867Y004323D01*
X002640Y004550D01*
X002409Y004550D01*
X002409Y003965D01*
X002994Y003965D01*
X002994Y003983D01*
X003158Y003983D01*
X003158Y003946D01*
X003158Y003974D02*
X002994Y003974D01*
X002997Y004450D02*
X002740Y004450D01*
X002997Y004608D02*
X002097Y004608D01*
X002097Y004767D02*
X002997Y004767D01*
X002997Y004925D02*
X002604Y004925D01*
X002824Y005084D02*
X002861Y005084D01*
X002861Y005242D02*
X002824Y005242D01*
X002250Y005084D02*
X002213Y005084D01*
X002213Y004925D02*
X002250Y004925D01*
X002369Y004450D02*
X002409Y004450D01*
X002409Y004291D02*
X002369Y004291D01*
X002369Y004133D02*
X002409Y004133D01*
X002409Y003974D02*
X002369Y003974D01*
X003492Y004575D02*
X003492Y005342D01*
X003511Y005362D01*
X004200Y005460D02*
X004279Y005519D01*
X004200Y005460D02*
X004752Y005460D01*
X004733Y004767D02*
X004770Y004767D01*
X004770Y004608D02*
X004733Y004608D01*
X004733Y004450D02*
X004770Y004450D01*
X006139Y002714D02*
X006513Y002714D01*
X006563Y002764D01*
X007252Y002764D01*
X007214Y002309D02*
X007684Y002309D01*
X007704Y002329D01*
X007705Y002328D01*
X007729Y002328D01*
X007682Y002280D01*
X007642Y002185D01*
X007642Y002082D01*
X007682Y001987D01*
X007754Y001914D01*
X007850Y001875D01*
X007953Y001875D01*
X008048Y001914D01*
X008084Y001950D01*
X008084Y001917D01*
X008669Y001917D01*
X008669Y001877D01*
X008084Y001877D01*
X008084Y001647D01*
X008125Y001605D01*
X007254Y001605D01*
X007254Y001702D01*
X006896Y001702D01*
X006896Y001739D01*
X006859Y001739D01*
X006859Y002033D01*
X006896Y002033D01*
X006896Y001739D01*
X007254Y001739D01*
X007254Y001960D01*
X007242Y002006D01*
X007218Y002047D01*
X007185Y002081D01*
X007182Y002083D01*
X007214Y002115D01*
X007214Y002309D01*
X007214Y002231D02*
X007661Y002231D01*
X007646Y002072D02*
X007194Y002072D01*
X007254Y001914D02*
X007755Y001914D01*
X007901Y002134D02*
X007980Y002212D01*
X007980Y002665D01*
X007961Y003316D02*
X007447Y003316D01*
X007447Y003353D01*
X007806Y003353D01*
X007961Y003353D01*
X007961Y003316D01*
X007961Y003340D02*
X007447Y003340D01*
X007961Y003353D02*
X007961Y003613D01*
X007998Y003650D01*
X007998Y003353D01*
X007961Y003353D01*
X007961Y003499D02*
X007998Y003499D01*
X008531Y003767D02*
X008196Y004102D01*
X008531Y003767D02*
X008531Y003492D01*
X009082Y003492D01*
X009479Y002910D02*
X009743Y002910D01*
X009743Y002814D01*
X009316Y002814D01*
X009316Y002804D01*
X009101Y002804D01*
X009101Y002841D01*
X009479Y002841D01*
X009479Y002910D01*
X009479Y002865D02*
X009743Y002865D01*
X009408Y002449D02*
X009200Y002241D01*
X008996Y002446D01*
X009064Y002446D01*
X009064Y002804D01*
X009101Y002804D01*
X009101Y002446D01*
X009323Y002446D01*
X009368Y002458D01*
X009382Y002466D01*
X009385Y002462D01*
X009408Y002449D01*
X009348Y002389D02*
X009052Y002389D01*
X009064Y002548D02*
X009101Y002548D01*
X009101Y002706D02*
X009064Y002706D01*
X009064Y002804D02*
X008550Y002804D01*
X008550Y002841D01*
X008908Y002841D01*
X009064Y002841D01*
X009064Y002804D01*
X008767Y002842D02*
X008551Y002842D01*
X008531Y002823D01*
X008669Y001914D02*
X008047Y001914D01*
X008084Y001755D02*
X007254Y001755D01*
X006896Y001755D02*
X006859Y001755D01*
X006859Y001914D02*
X006896Y001914D01*
X006730Y002458D02*
X006139Y002458D01*
X006139Y001691D02*
X005667Y001691D01*
X005618Y001740D01*
X005425Y001914D02*
X005308Y001914D01*
X005321Y001755D02*
X005359Y001755D01*
X007271Y004161D02*
X007114Y004319D01*
X007271Y004161D02*
X007665Y004161D01*
X007763Y004732D02*
X007665Y004830D01*
X007271Y004830D01*
X007114Y004988D01*
X007763Y004732D02*
X008196Y004732D01*
X008789Y005973D02*
X009084Y005973D01*
X009084Y006010D01*
X008789Y006010D01*
X008789Y005973D01*
X009120Y005973D02*
X009120Y006010D01*
X009356Y006010D01*
X009356Y005973D01*
X009120Y005973D01*
X009082Y006602D02*
X008452Y006602D01*
X008433Y006622D01*
X008059Y006622D01*
X007872Y006442D02*
X007912Y006402D01*
X008007Y006363D01*
X008096Y006363D01*
X008096Y006347D01*
X008136Y006307D01*
X008076Y006247D01*
X008076Y006171D01*
X007906Y006171D01*
X007862Y006127D01*
X007687Y006302D01*
X007687Y006381D01*
X007660Y006408D01*
X007721Y006469D01*
X007748Y006442D01*
X007872Y006442D01*
X007687Y006352D02*
X008096Y006352D01*
X008076Y006193D02*
X007796Y006193D01*
X007124Y007193D02*
X006855Y007193D01*
X007124Y007193D01*
X007124Y007193D01*
X007124Y007570D01*
X007236Y007570D01*
X007282Y007557D01*
X007323Y007534D01*
X007327Y007530D01*
X007642Y007530D01*
X007642Y007618D01*
X007682Y007713D01*
X007749Y007781D01*
X007748Y007781D01*
X007643Y007886D01*
X007643Y008901D01*
X007748Y009006D01*
X008386Y009006D01*
X008379Y009021D01*
X007863Y009021D01*
X007781Y009103D01*
X007781Y009613D01*
X007861Y009693D01*
X007781Y009772D01*
X007781Y010025D01*
X007464Y010025D01*
X007429Y009990D01*
X007447Y009990D01*
X007487Y009951D01*
X007503Y009951D01*
X007582Y009872D01*
X007687Y009767D01*
X007687Y009225D01*
X007529Y009067D01*
X007529Y007965D01*
X007490Y007925D01*
X007490Y007863D01*
X007408Y007781D01*
X006952Y007781D01*
X006769Y007598D01*
X006840Y007526D01*
X006840Y007029D01*
X006855Y007029D01*
X006855Y007193D01*
X006855Y007413D01*
X006867Y007459D01*
X006891Y007500D01*
X006925Y007534D01*
X006966Y007557D01*
X007011Y007570D01*
X007124Y007570D01*
X007124Y007193D01*
X007124Y007193D01*
X007124Y007303D02*
X007124Y007303D01*
X007124Y007461D02*
X007124Y007461D01*
X006869Y007461D02*
X006840Y007461D01*
X006840Y007303D02*
X006855Y007303D01*
X006840Y007144D02*
X006855Y007144D01*
X006791Y007620D02*
X007643Y007620D01*
X007746Y007778D02*
X006949Y007778D01*
X007501Y007937D02*
X007643Y007937D01*
X007643Y008095D02*
X007529Y008095D01*
X007529Y008254D02*
X007643Y008254D01*
X007643Y008412D02*
X007529Y008412D01*
X007529Y008571D02*
X007643Y008571D01*
X007643Y008729D02*
X007529Y008729D01*
X007529Y008888D02*
X007643Y008888D01*
X007529Y009046D02*
X007838Y009046D01*
X007781Y009205D02*
X007667Y009205D01*
X007687Y009363D02*
X007781Y009363D01*
X007781Y009522D02*
X007687Y009522D01*
X007687Y009680D02*
X007848Y009680D01*
X007781Y009839D02*
X007615Y009839D01*
X007781Y009997D02*
X007436Y009997D01*
X007195Y010264D02*
X007195Y010422D01*
X006837Y010422D01*
X006837Y010459D01*
X007195Y010459D01*
X007195Y010536D01*
X007230Y010536D01*
X007230Y010298D01*
X007195Y010264D01*
X007195Y010314D02*
X007230Y010314D01*
X007230Y010473D02*
X007195Y010473D01*
X006837Y010473D02*
X006800Y010473D01*
X006800Y010459D02*
X006800Y010896D01*
X006760Y010896D01*
X006821Y010957D01*
X007031Y011167D01*
X007109Y011245D01*
X007193Y011245D01*
X007334Y011245D01*
X007380Y011257D01*
X007421Y011281D01*
X007425Y011285D01*
X007743Y011285D01*
X007781Y011323D01*
X007781Y011263D01*
X007571Y011053D01*
X007246Y011053D01*
X007244Y011054D01*
X007141Y011054D01*
X007046Y011015D01*
X006973Y010942D01*
X006954Y010896D01*
X006837Y010896D01*
X006837Y010459D01*
X006800Y010459D01*
X006800Y010631D02*
X006837Y010631D01*
X006837Y010790D02*
X006800Y010790D01*
X006812Y010948D02*
X006979Y010948D01*
X006821Y010957D02*
X006821Y010957D01*
X006970Y011107D02*
X007625Y011107D01*
X007781Y011265D02*
X007394Y011265D01*
X007193Y011265D02*
X007193Y011265D01*
X007193Y011245D02*
X007193Y011602D01*
X007193Y011602D01*
X007193Y011602D01*
X007193Y011959D01*
X007334Y011959D01*
X007380Y011947D01*
X007421Y011923D01*
X007425Y011919D01*
X007743Y011919D01*
X007825Y011837D01*
X007825Y011802D01*
X007984Y011802D01*
X007997Y011789D01*
X007997Y012408D01*
X008079Y012490D01*
X008707Y012490D01*
X008745Y012452D01*
X008745Y012523D01*
X008924Y012702D01*
X008805Y012702D01*
X008805Y013060D01*
X008769Y013060D01*
X008769Y012702D01*
X008547Y012702D01*
X008501Y012714D01*
X008460Y012738D01*
X008426Y012771D01*
X008425Y012774D01*
X008392Y012742D01*
X007975Y012742D01*
X007844Y012610D01*
X007844Y012296D01*
X007825Y012276D01*
X007825Y012272D01*
X007743Y012190D01*
X007390Y012190D01*
X007308Y012272D01*
X007308Y012315D01*
X007171Y012453D01*
X007171Y012780D01*
X007136Y012745D01*
X007136Y012217D01*
X007031Y012112D01*
X006917Y011998D01*
X007031Y011998D01*
X007069Y011959D01*
X007193Y011959D01*
X007193Y011602D01*
X007193Y011245D01*
X007193Y011424D02*
X007193Y011424D01*
X007193Y011582D02*
X007193Y011582D01*
X007193Y011741D02*
X007193Y011741D01*
X007193Y011899D02*
X007193Y011899D01*
X006977Y012058D02*
X007997Y012058D01*
X007997Y012216D02*
X007768Y012216D01*
X007844Y012375D02*
X007997Y012375D01*
X007844Y012533D02*
X008756Y012533D01*
X008914Y012692D02*
X007926Y012692D01*
X007365Y012216D02*
X007135Y012216D01*
X007136Y012375D02*
X007249Y012375D01*
X007171Y012533D02*
X007136Y012533D01*
X007136Y012692D02*
X007171Y012692D01*
X007763Y011899D02*
X007997Y011899D01*
X008769Y012850D02*
X008805Y012850D01*
X008805Y013009D02*
X008769Y013009D01*
X008769Y013097D02*
X008769Y013690D01*
X008805Y013690D01*
X008805Y013312D01*
X008805Y013097D01*
X008769Y013097D01*
X008769Y013167D02*
X008805Y013167D01*
X008805Y013326D02*
X008769Y013326D01*
X008769Y013484D02*
X008805Y013484D01*
X008805Y013643D02*
X008769Y013643D01*
X009791Y011956D02*
X009791Y011366D01*
X009811Y011346D02*
X009811Y010716D01*
X009267Y010339D02*
X009124Y010196D01*
X009124Y010282D01*
X009067Y010339D01*
X009123Y010339D01*
X009123Y010698D01*
X009160Y010698D01*
X009160Y010339D01*
X009267Y010339D01*
X009242Y010314D02*
X009092Y010314D01*
X009123Y010473D02*
X009160Y010473D01*
X009161Y010480D02*
X009161Y010697D01*
X009141Y010716D01*
X009123Y010735D02*
X009123Y010950D01*
X009123Y011328D01*
X009160Y011328D01*
X009160Y010735D01*
X009123Y010735D01*
X009123Y010790D02*
X009160Y010790D01*
X009160Y010948D02*
X009123Y010948D01*
X009123Y011107D02*
X009160Y011107D01*
X009160Y011265D02*
X009123Y011265D01*
X009123Y010631D02*
X009160Y010631D01*
X009613Y009830D02*
X009653Y009830D01*
X009653Y009245D01*
X009884Y009245D01*
X010005Y009366D01*
X010005Y009164D01*
X009839Y009164D01*
X009839Y008776D01*
X010005Y008776D01*
X010005Y008680D01*
X009839Y008680D01*
X009839Y008776D01*
X009743Y008776D01*
X009743Y008680D01*
X009052Y008680D01*
X009052Y008776D01*
X009316Y008776D01*
X009743Y008776D01*
X009743Y009164D01*
X009472Y009164D01*
X009426Y009152D01*
X009397Y009135D01*
X009368Y009152D01*
X009323Y009164D01*
X009124Y009164D01*
X009124Y009504D01*
X009383Y009245D01*
X009613Y009245D01*
X009613Y009830D01*
X009613Y009680D02*
X009653Y009680D01*
X009653Y009522D02*
X009613Y009522D01*
X009613Y009363D02*
X009653Y009363D01*
X009743Y009046D02*
X009839Y009046D01*
X009839Y008888D02*
X009743Y008888D01*
X009743Y008729D02*
X009052Y008729D01*
X008956Y008729D02*
X008710Y008729D01*
X008710Y008743D02*
X008678Y008776D01*
X008956Y008776D01*
X008956Y008680D01*
X008710Y008680D01*
X008710Y008743D01*
X009124Y009205D02*
X010005Y009205D01*
X010002Y009363D02*
X010005Y009363D01*
X010005Y008729D02*
X009839Y008729D01*
X009265Y009363D02*
X009124Y009363D01*
X008156Y010364D02*
X008119Y010364D01*
X008119Y010678D01*
X008156Y010678D01*
X008156Y010364D01*
X008156Y010473D02*
X008119Y010473D01*
X008119Y010631D02*
X008156Y010631D01*
X007031Y011167D02*
X007031Y011167D01*
X005504Y009532D02*
X005471Y009519D01*
X005431Y009478D01*
X005220Y009478D01*
X005207Y009491D01*
X005207Y009532D01*
X005353Y009532D01*
X005353Y009960D01*
X005449Y009960D01*
X005449Y009532D01*
X005504Y009532D01*
X005479Y009522D02*
X005207Y009522D01*
X005353Y009680D02*
X005449Y009680D01*
X005449Y009839D02*
X005353Y009839D01*
X005353Y010056D02*
X005353Y010747D01*
X004965Y010747D01*
X004965Y010502D01*
X004852Y010502D01*
X004852Y010791D01*
X004747Y010896D01*
X004668Y010974D01*
X004636Y010974D01*
X004636Y011385D01*
X004564Y011456D01*
X004965Y011857D01*
X004965Y011630D01*
X005353Y011630D01*
X005353Y011534D01*
X005449Y011534D01*
X005449Y010843D01*
X005353Y010843D01*
X005353Y010747D01*
X005449Y010747D01*
X005449Y010320D01*
X005449Y010056D01*
X005353Y010056D01*
X005353Y010156D02*
X005449Y010156D01*
X005449Y010314D02*
X005353Y010314D01*
X005353Y010473D02*
X005449Y010473D01*
X005449Y010631D02*
X005353Y010631D01*
X005353Y010790D02*
X004852Y010790D01*
X004965Y010843D02*
X005353Y010843D01*
X005353Y011107D01*
X005353Y011534D01*
X004965Y011534D01*
X004965Y011263D01*
X004978Y011218D01*
X004994Y011189D01*
X004978Y011160D01*
X004965Y011114D01*
X004965Y010843D01*
X004965Y010948D02*
X004695Y010948D01*
X004636Y011107D02*
X004965Y011107D01*
X004965Y011265D02*
X004636Y011265D01*
X004596Y011424D02*
X004965Y011424D01*
X004965Y011741D02*
X004849Y011741D01*
X004690Y011582D02*
X005353Y011582D01*
X005353Y011424D02*
X005449Y011424D01*
X005449Y011265D02*
X005353Y011265D01*
X005353Y011107D02*
X005449Y011107D01*
X005449Y010948D02*
X005353Y010948D01*
X004965Y010631D02*
X004852Y010631D01*
X004673Y009949D02*
X004122Y009949D01*
X004122Y010323D01*
X004259Y010460D01*
X004279Y010460D01*
X004122Y009949D02*
X003639Y009949D01*
X003561Y009870D01*
X003789Y009670D02*
X003845Y009614D01*
X003785Y009554D01*
X003785Y009216D01*
X003496Y008927D01*
X003228Y008927D01*
X003228Y009533D01*
X003451Y009533D01*
X003707Y009533D01*
X003789Y009615D01*
X003789Y009670D01*
X003785Y009522D02*
X003228Y009522D01*
X003228Y009363D02*
X003785Y009363D01*
X003774Y009205D02*
X003228Y009205D01*
X003228Y009046D02*
X003615Y009046D01*
X004122Y009279D02*
X004673Y009279D01*
X004752Y008689D02*
X004122Y008689D01*
X004140Y008038D02*
X004733Y008038D01*
X004733Y008001D01*
X004499Y008001D01*
X004140Y008001D01*
X004140Y007526D01*
X004103Y007526D01*
X004103Y007489D01*
X003745Y007489D01*
X003745Y007403D01*
X003717Y007431D01*
X003400Y007431D01*
X003396Y007435D01*
X003355Y007459D01*
X003309Y007471D01*
X003177Y007471D01*
X003177Y007055D01*
X003177Y007055D01*
X003177Y007471D01*
X003045Y007471D01*
X002999Y007459D01*
X002958Y007435D01*
X002954Y007431D01*
X002882Y007431D01*
X002885Y007436D01*
X002885Y007539D01*
X002845Y007635D01*
X002772Y007708D01*
X002726Y007727D01*
X002726Y007919D01*
X002902Y007919D01*
X003357Y007919D01*
X003362Y007915D01*
X003403Y007891D01*
X003448Y007879D01*
X003561Y007879D01*
X003673Y007879D01*
X003719Y007891D01*
X003745Y007906D01*
X003745Y007779D01*
X003749Y007764D01*
X003745Y007748D01*
X003745Y007526D01*
X004103Y007526D01*
X004103Y007623D01*
X004103Y008001D01*
X004140Y008001D01*
X004140Y008038D01*
X004140Y007937D02*
X004103Y007937D01*
X004103Y007778D02*
X004140Y007778D01*
X004140Y007620D02*
X004103Y007620D01*
X003745Y007620D02*
X002851Y007620D01*
X002885Y007461D02*
X003008Y007461D01*
X003177Y007461D02*
X003177Y007461D01*
X003177Y007303D02*
X003177Y007303D01*
X003177Y007144D02*
X003177Y007144D01*
X003346Y007461D02*
X003745Y007461D01*
X003745Y007778D02*
X002726Y007778D01*
X002793Y008256D02*
X003049Y008256D01*
X003561Y008256D02*
X003561Y007879D01*
X003561Y008256D01*
X003561Y008256D01*
X003561Y008254D02*
X003561Y008254D01*
X003561Y008095D02*
X003561Y008095D01*
X003561Y007937D02*
X003561Y007937D01*
X003551Y007055D02*
X003551Y006760D01*
X004043Y006760D01*
X004122Y006838D01*
X003551Y006760D02*
X003413Y006622D01*
X002941Y006622D01*
X002803Y006760D01*
X002783Y006779D01*
X002468Y006779D01*
X002232Y006543D01*
X002232Y006464D01*
X002803Y006760D02*
X002803Y007055D01*
X002232Y007862D02*
X002232Y007960D01*
X002250Y008550D02*
X002213Y008550D01*
X002213Y009182D01*
X002250Y009182D01*
X002250Y008804D01*
X002250Y008550D01*
X002250Y008571D02*
X002213Y008571D01*
X002213Y008729D02*
X002250Y008729D01*
X002250Y008888D02*
X002213Y008888D01*
X002213Y009046D02*
X002250Y009046D01*
X002250Y009182D02*
X002250Y009219D01*
X002609Y009219D01*
X002609Y009441D01*
X002596Y009487D01*
X002573Y009528D01*
X002539Y009561D01*
X002536Y009563D01*
X002569Y009595D01*
X002569Y009611D01*
X002646Y009533D01*
X002869Y009533D01*
X002869Y008852D01*
X002788Y008770D01*
X002609Y008770D01*
X002609Y008771D01*
X002596Y008817D01*
X002573Y008858D01*
X002565Y008866D01*
X002573Y008873D01*
X002596Y008915D01*
X002609Y008960D01*
X002609Y009182D01*
X002250Y009182D01*
X002250Y009205D02*
X002869Y009205D01*
X002869Y009363D02*
X002609Y009363D01*
X002576Y009522D02*
X002869Y009522D01*
X002793Y009870D02*
X002232Y009870D01*
X002232Y009771D01*
X002232Y010460D02*
X002862Y010460D01*
X002862Y011130D02*
X002232Y011130D01*
X003433Y011897D02*
X003492Y011838D01*
X003492Y011130D01*
X004181Y011897D02*
X004279Y011799D01*
X004279Y011130D01*
X004322Y013218D02*
X004002Y013218D01*
X004002Y013254D01*
X004359Y013254D01*
X004322Y013218D01*
X004002Y013254D02*
X004002Y013632D01*
X004002Y013769D01*
X003965Y013769D01*
X003671Y013769D01*
X003671Y013806D01*
X003965Y013806D01*
X003965Y013769D01*
X003965Y013254D01*
X003651Y013254D01*
X003651Y013218D01*
X003965Y013218D01*
X003965Y013254D01*
X004002Y013254D01*
X004002Y013326D02*
X003965Y013326D01*
X003965Y013484D02*
X004002Y013484D01*
X004002Y013643D02*
X003965Y013643D01*
X003965Y013801D02*
X003671Y013801D01*
X003315Y013787D02*
X003315Y013236D01*
X002978Y013295D02*
X002936Y013337D01*
X002786Y013337D01*
X002786Y013562D01*
X002359Y013562D01*
X002359Y013658D01*
X002786Y013658D01*
X002786Y013843D01*
X002958Y013843D01*
X002958Y013532D01*
X002979Y013512D01*
X002978Y013510D01*
X002978Y013295D01*
X002978Y013326D02*
X002947Y013326D01*
X002978Y013484D02*
X002786Y013484D01*
X002958Y013643D02*
X002359Y013643D01*
X002263Y013643D02*
X002097Y013643D01*
X002097Y013658D02*
X002263Y013658D01*
X002263Y013562D01*
X002097Y013562D01*
X002097Y013658D01*
X002786Y013801D02*
X002958Y013801D01*
X004380Y013737D02*
X004380Y013641D01*
X004782Y013641D01*
X004782Y013737D01*
X004380Y013737D01*
X004380Y013643D02*
X004782Y013643D01*
X004878Y013643D02*
X005202Y013643D01*
X005202Y013641D02*
X004878Y013641D01*
X004878Y013737D01*
X005202Y013737D01*
X005202Y013641D01*
X002869Y009046D02*
X002609Y009046D01*
X002581Y008888D02*
X002869Y008888D01*
X004752Y008689D02*
X005303Y008689D01*
X004770Y008001D02*
X004770Y007447D01*
X004733Y007447D01*
X004733Y007825D01*
X004733Y008001D01*
X004770Y008001D01*
X004770Y007937D02*
X004733Y007937D01*
X004733Y007778D02*
X004770Y007778D01*
X004770Y007620D02*
X004733Y007620D01*
X004733Y007461D02*
X004770Y007461D01*
X008452Y007271D02*
X009082Y007271D01*
X008709Y001917D02*
X009692Y001917D01*
X009692Y001877D01*
X009107Y001877D01*
X008709Y001877D01*
X008709Y001917D01*
X008709Y001914D02*
X009692Y001914D01*
D26*
X008767Y002842D03*
X007980Y003551D03*
X007271Y003315D03*
X006956Y003866D03*
X006878Y004496D03*
X006563Y005441D03*
X007193Y006307D03*
X006878Y006464D03*
X007507Y006622D03*
X007822Y006307D03*
X008059Y006622D03*
X007901Y007567D03*
X007507Y007645D03*
X006956Y007645D03*
X006248Y008905D03*
X005933Y008512D03*
X005618Y009299D03*
X005381Y009693D03*
X005381Y010401D03*
X004909Y010638D03*
X005381Y011189D03*
X004909Y011582D03*
X004043Y013236D03*
X004279Y013708D03*
X004909Y013708D03*
X006563Y011504D03*
X006799Y010795D03*
X007193Y010795D03*
X007507Y011110D03*
X008137Y010559D03*
X007665Y009929D03*
X007665Y009063D03*
X008295Y009299D03*
X008610Y009141D03*
X008925Y008748D03*
X009476Y008748D03*
X010027Y008748D03*
X009161Y010480D03*
X009555Y010716D03*
X009161Y011031D03*
X008295Y011976D03*
X007822Y012055D03*
X007193Y012055D03*
X008689Y012606D03*
X008767Y013393D03*
X004752Y007724D03*
X004122Y007724D03*
X003649Y007803D03*
X003256Y007567D03*
X002626Y007488D03*
X002232Y007960D03*
X002704Y008827D03*
X002704Y009378D03*
X002232Y009771D03*
X003649Y009456D03*
X004122Y006937D03*
X004437Y006228D03*
X004437Y005913D03*
X004279Y005519D03*
X003492Y004575D03*
X002941Y004496D03*
X002862Y004968D03*
X002232Y004653D03*
X003177Y003393D03*
X004437Y002842D03*
X004909Y003472D03*
X005224Y002842D03*
X005067Y001819D03*
X005618Y001740D03*
X004437Y001976D03*
X003098Y001740D03*
X004752Y004338D03*
X005381Y006228D03*
X005696Y006701D03*
X005381Y007094D03*
X003177Y006149D03*
X002704Y006464D03*
X002232Y006937D03*
X002232Y013630D03*
X002783Y013630D03*
X009161Y005992D03*
X007901Y002134D03*
X007980Y001740D03*
X007350Y002212D03*
X006878Y001976D03*
D27*
X004043Y006149D02*
X003649Y006149D01*
X003551Y006051D01*
X003551Y006031D01*
X003551Y005401D01*
X003511Y005362D01*
X002803Y006031D02*
X002626Y005854D01*
X002232Y005854D01*
X002232Y007252D02*
X002232Y007862D01*
X004122Y006937D02*
X004122Y006838D01*
X006563Y011504D02*
X006661Y011602D01*
X006819Y011602D01*
X008295Y011976D02*
X008315Y011976D01*
X008393Y012055D01*
X009791Y011366D02*
X009811Y011346D01*
X004830Y013708D02*
X004279Y013708D01*
X004043Y013708D01*
X003964Y013787D01*
D28*
X004562Y013204D02*
X007035Y013204D01*
X007035Y013281D02*
X005190Y013281D01*
X005145Y013236D02*
X005381Y013472D01*
X005381Y013787D01*
X005478Y013884D01*
X007035Y013884D01*
X007035Y012921D01*
X005460Y012921D01*
X005145Y012606D01*
X005145Y012291D01*
X004437Y011582D01*
X003964Y011582D01*
X003964Y012212D01*
X004200Y012212D01*
X004358Y012370D01*
X004358Y013000D01*
X004594Y013236D01*
X005145Y013236D01*
X005268Y013358D02*
X007035Y013358D01*
X007035Y013435D02*
X005345Y013435D01*
X005381Y013513D02*
X007035Y013513D01*
X007035Y013590D02*
X005381Y013590D01*
X005381Y013667D02*
X007035Y013667D01*
X007035Y013744D02*
X005381Y013744D01*
X005416Y013822D02*
X007035Y013822D01*
X007350Y013822D02*
X008295Y013822D01*
X008295Y013884D02*
X008295Y013000D01*
X007980Y013000D01*
X007665Y012685D01*
X007665Y012370D01*
X007507Y012370D01*
X007350Y012527D01*
X007350Y013884D01*
X008295Y013884D01*
X008295Y013744D02*
X007350Y013744D01*
X007350Y013667D02*
X008295Y013667D01*
X008295Y013590D02*
X007350Y013590D01*
X007350Y013513D02*
X008295Y013513D01*
X008295Y013435D02*
X007350Y013435D01*
X007350Y013358D02*
X008295Y013358D01*
X008295Y013281D02*
X007350Y013281D01*
X007350Y013204D02*
X008295Y013204D01*
X008295Y013126D02*
X007350Y013126D01*
X007350Y013049D02*
X008295Y013049D01*
X007952Y012972D02*
X007350Y012972D01*
X007350Y012895D02*
X007875Y012895D01*
X007798Y012818D02*
X007350Y012818D01*
X007350Y012740D02*
X007720Y012740D01*
X007665Y012663D02*
X007350Y012663D01*
X007350Y012586D02*
X007665Y012586D01*
X007665Y012509D02*
X007369Y012509D01*
X007446Y012431D02*
X007665Y012431D01*
X006956Y012431D02*
X005460Y012431D01*
X005460Y012354D02*
X006956Y012354D01*
X006956Y012291D02*
X006720Y012055D01*
X005460Y012055D01*
X005460Y012685D01*
X006956Y012685D01*
X006956Y012291D01*
X006942Y012277D02*
X005460Y012277D01*
X005460Y012200D02*
X006865Y012200D01*
X006788Y012122D02*
X005460Y012122D01*
X005460Y012509D02*
X006956Y012509D01*
X006956Y012586D02*
X005460Y012586D01*
X005460Y012663D02*
X006956Y012663D01*
X007035Y012972D02*
X004358Y012972D01*
X004358Y012895D02*
X005434Y012895D01*
X005357Y012818D02*
X004358Y012818D01*
X004358Y012740D02*
X005280Y012740D01*
X005202Y012663D02*
X004358Y012663D01*
X004358Y012586D02*
X005145Y012586D01*
X005145Y012509D02*
X004358Y012509D01*
X004358Y012431D02*
X005145Y012431D01*
X005145Y012354D02*
X004342Y012354D01*
X004265Y012277D02*
X005131Y012277D01*
X005054Y012200D02*
X003964Y012200D01*
X003964Y012122D02*
X004977Y012122D01*
X004899Y012045D02*
X003964Y012045D01*
X003964Y011968D02*
X004822Y011968D01*
X004745Y011891D02*
X003964Y011891D01*
X003964Y011813D02*
X004668Y011813D01*
X004590Y011736D02*
X003964Y011736D01*
X003964Y011659D02*
X004513Y011659D01*
X003807Y012370D02*
X003984Y012547D01*
X003984Y012606D01*
X003885Y012704D01*
X003885Y012764D01*
X003649Y013000D01*
X003551Y013000D01*
X003315Y013236D01*
X002941Y013078D02*
X002941Y013000D01*
X003098Y012842D01*
X003570Y012842D01*
X003649Y012764D01*
X003649Y011661D01*
X003570Y011582D01*
X002056Y011582D01*
X002056Y013157D01*
X002862Y013157D01*
X002941Y013078D01*
X002941Y013049D02*
X002056Y013049D01*
X002056Y012972D02*
X002968Y012972D01*
X003046Y012895D02*
X002056Y012895D01*
X002056Y012818D02*
X003595Y012818D01*
X003649Y012740D02*
X002056Y012740D01*
X002056Y012663D02*
X003649Y012663D01*
X003649Y012586D02*
X002056Y012586D01*
X002056Y012509D02*
X003649Y012509D01*
X003649Y012431D02*
X002056Y012431D01*
X002056Y012354D02*
X003649Y012354D01*
X003649Y012277D02*
X002056Y012277D01*
X002056Y012200D02*
X003649Y012200D01*
X003649Y012122D02*
X002056Y012122D01*
X002056Y012045D02*
X003649Y012045D01*
X003649Y011968D02*
X002056Y011968D01*
X002056Y011891D02*
X003649Y011891D01*
X003649Y011813D02*
X002056Y011813D01*
X002056Y011736D02*
X003649Y011736D01*
X003647Y011659D02*
X002056Y011659D01*
X002862Y011130D02*
X002862Y010874D01*
X002941Y010795D01*
X003413Y010795D01*
X003492Y010716D01*
X003492Y010460D01*
X003885Y010874D02*
X003964Y010795D01*
X004594Y010795D01*
X004673Y010716D01*
X004673Y010401D01*
X004752Y010323D01*
X004909Y010323D01*
X005027Y010204D01*
X005027Y009417D01*
X005145Y009299D01*
X005618Y009299D01*
X005618Y009063D02*
X004968Y009063D01*
X004673Y009279D01*
X004122Y009279D02*
X004063Y009220D01*
X004043Y009220D01*
X003570Y008748D01*
X003256Y008748D01*
X003049Y008541D01*
X003049Y008256D01*
X003305Y008256D02*
X003305Y008482D01*
X003413Y008590D01*
X004023Y008590D01*
X004122Y008689D01*
X003049Y008777D02*
X002862Y008590D01*
X002626Y008590D01*
X002547Y008512D01*
X002547Y007567D01*
X002626Y007488D01*
X002232Y007252D02*
X002232Y006937D01*
X002704Y006464D02*
X002783Y006386D01*
X003492Y006386D01*
X003570Y006464D01*
X004279Y006464D01*
X004437Y006307D01*
X004437Y006228D01*
X004437Y005913D02*
X004358Y005834D01*
X003964Y005834D01*
X003846Y005716D01*
X003846Y004378D01*
X003964Y004260D01*
X004122Y004260D01*
X004279Y004102D01*
X004279Y003551D01*
X004210Y003482D01*
X003836Y003482D01*
X003836Y003226D02*
X004191Y003226D01*
X004437Y003472D01*
X004437Y004181D01*
X004200Y004417D01*
X004200Y004791D01*
X003728Y004181D02*
X003728Y004102D01*
X003836Y003994D01*
X003728Y004181D02*
X003570Y004338D01*
X003334Y004338D01*
X003177Y004496D01*
X003177Y006149D01*
X004752Y006228D02*
X004830Y006149D01*
X004830Y006071D01*
X005145Y005756D01*
X005145Y004338D01*
X005303Y004417D02*
X005726Y003994D01*
X006139Y003994D01*
X006139Y003738D02*
X006513Y003738D01*
X006563Y003787D01*
X006563Y004181D01*
X006484Y004260D01*
X005696Y004260D01*
X005460Y004496D01*
X005460Y005913D01*
X005696Y006149D01*
X006484Y006149D01*
X006720Y006386D01*
X006799Y006386D01*
X006878Y006464D01*
X006799Y006228D02*
X006563Y005992D01*
X005775Y005992D01*
X005618Y005834D01*
X005618Y004575D01*
X005775Y004417D01*
X006563Y004417D01*
X006720Y004260D01*
X006720Y003708D01*
X006494Y003482D01*
X006139Y003482D01*
X006139Y003226D02*
X006553Y003226D01*
X006878Y003551D01*
X006878Y003787D01*
X006956Y003866D01*
X007193Y003708D02*
X007035Y003551D01*
X007035Y003472D01*
X006533Y002970D01*
X006139Y002970D01*
X006730Y002458D02*
X006878Y002390D01*
X007252Y002764D02*
X007429Y002665D01*
X007193Y003708D02*
X007803Y003708D01*
X008196Y004102D01*
X008689Y004089D02*
X010027Y004089D01*
X010027Y004012D02*
X008689Y004012D01*
X008689Y003945D02*
X008689Y004890D01*
X008767Y004968D01*
X009319Y004968D01*
X009555Y005204D01*
X009555Y005519D01*
X010027Y005519D01*
X010027Y003393D01*
X009555Y003393D01*
X009555Y003708D01*
X009397Y003866D01*
X008767Y003866D01*
X008689Y003945D01*
X008698Y003935D02*
X010027Y003935D01*
X010027Y003858D02*
X009405Y003858D01*
X009483Y003780D02*
X010027Y003780D01*
X010027Y003703D02*
X009555Y003703D01*
X009555Y003626D02*
X010027Y003626D01*
X010027Y003549D02*
X009555Y003549D01*
X009555Y003471D02*
X010027Y003471D01*
X010027Y003394D02*
X009555Y003394D01*
X010027Y004167D02*
X008689Y004167D01*
X008689Y004244D02*
X010027Y004244D01*
X010027Y004321D02*
X008689Y004321D01*
X008689Y004398D02*
X010027Y004398D01*
X010027Y004476D02*
X008689Y004476D01*
X008689Y004553D02*
X010027Y004553D01*
X010027Y004630D02*
X008689Y004630D01*
X008689Y004707D02*
X010027Y004707D01*
X010027Y004785D02*
X008689Y004785D01*
X008689Y004862D02*
X010027Y004862D01*
X010027Y004939D02*
X008738Y004939D01*
X008433Y005362D02*
X008275Y005204D01*
X007507Y005204D01*
X007380Y005332D01*
X007380Y005578D01*
X007380Y005884D01*
X007350Y005913D01*
X006956Y005913D01*
X006878Y005834D01*
X006878Y005362D01*
X006720Y005204D01*
X006720Y005106D01*
X006563Y004949D01*
X006563Y005441D02*
X006563Y005618D01*
X006720Y005775D01*
X006720Y005913D01*
X006878Y006071D01*
X007429Y006071D01*
X007635Y005864D01*
X007635Y005578D01*
X007891Y005578D02*
X007891Y005903D01*
X007832Y005903D01*
X007507Y006228D01*
X007507Y006307D01*
X007271Y006543D01*
X007114Y006543D01*
X006956Y006701D01*
X006799Y006701D01*
X006405Y006307D01*
X005460Y006307D01*
X005381Y006228D01*
X005145Y005992D02*
X005303Y005834D01*
X005303Y004417D01*
X005145Y005992D02*
X005145Y006937D01*
X005303Y007094D01*
X005381Y007094D01*
X005145Y007153D02*
X004752Y006760D01*
X004752Y006228D01*
X005145Y007153D02*
X005145Y007724D01*
X005381Y007960D01*
X005303Y008019D01*
X005696Y007567D02*
X005696Y008984D01*
X005618Y009063D01*
X005854Y009033D02*
X006563Y009033D01*
X006563Y009023D02*
X006288Y008748D01*
X006011Y008748D01*
X005854Y008905D01*
X005854Y010952D01*
X005933Y011031D01*
X006011Y011031D01*
X005933Y011110D01*
X005933Y011819D01*
X006956Y011819D01*
X006956Y011346D01*
X006641Y011031D01*
X006563Y011031D01*
X006405Y010874D01*
X006405Y009693D01*
X006563Y009535D01*
X006563Y009023D01*
X006563Y009110D02*
X005854Y009110D01*
X005854Y009187D02*
X006563Y009187D01*
X006563Y009264D02*
X005854Y009264D01*
X005854Y009342D02*
X006563Y009342D01*
X006563Y009419D02*
X005854Y009419D01*
X005854Y009496D02*
X006563Y009496D01*
X006524Y009573D02*
X005854Y009573D01*
X005854Y009651D02*
X006447Y009651D01*
X006405Y009728D02*
X005854Y009728D01*
X005854Y009805D02*
X006405Y009805D01*
X006405Y009882D02*
X005854Y009882D01*
X005854Y009960D02*
X006405Y009960D01*
X006405Y010037D02*
X005854Y010037D01*
X005854Y010114D02*
X006405Y010114D01*
X006405Y010191D02*
X005854Y010191D01*
X005854Y010269D02*
X006405Y010269D01*
X006405Y010346D02*
X005854Y010346D01*
X005854Y010423D02*
X006405Y010423D01*
X006405Y010500D02*
X005854Y010500D01*
X005854Y010578D02*
X006405Y010578D01*
X006405Y010655D02*
X005854Y010655D01*
X005854Y010732D02*
X006405Y010732D01*
X006405Y010809D02*
X005854Y010809D01*
X005854Y010887D02*
X006418Y010887D01*
X006495Y010964D02*
X005865Y010964D01*
X006002Y011041D02*
X006651Y011041D01*
X006728Y011118D02*
X005933Y011118D01*
X005933Y011195D02*
X006806Y011195D01*
X006883Y011273D02*
X005933Y011273D01*
X005933Y011350D02*
X006956Y011350D01*
X006956Y011427D02*
X005933Y011427D01*
X005933Y011504D02*
X006956Y011504D01*
X006956Y011582D02*
X005933Y011582D01*
X005933Y011659D02*
X006956Y011659D01*
X006956Y011736D02*
X005933Y011736D01*
X005933Y011813D02*
X006956Y011813D01*
X007271Y010874D02*
X007645Y010874D01*
X008137Y011366D01*
X008531Y011661D02*
X008393Y011799D01*
X008393Y012055D01*
X008531Y011661D02*
X008531Y010421D01*
X008137Y010027D01*
X008137Y009358D02*
X008236Y009358D01*
X008295Y009299D01*
X008610Y009141D02*
X008767Y009299D01*
X008767Y009358D01*
X008399Y008801D02*
X007822Y008801D01*
X007822Y008827D02*
X008374Y008827D01*
X008531Y008669D01*
X008531Y008354D01*
X008689Y008197D01*
X010027Y008197D01*
X010027Y005834D01*
X009555Y005834D01*
X009555Y007488D01*
X009319Y007724D01*
X008689Y007724D01*
X008452Y007960D01*
X007822Y007960D01*
X007822Y008827D01*
X007822Y008724D02*
X008476Y008724D01*
X008531Y008647D02*
X007822Y008647D01*
X007822Y008569D02*
X008531Y008569D01*
X008531Y008492D02*
X007822Y008492D01*
X007822Y008415D02*
X008531Y008415D01*
X008548Y008338D02*
X007822Y008338D01*
X007822Y008260D02*
X008625Y008260D01*
X008461Y007951D02*
X010027Y007951D01*
X010027Y007874D02*
X008539Y007874D01*
X008616Y007797D02*
X010027Y007797D01*
X010027Y007720D02*
X009323Y007720D01*
X009400Y007642D02*
X010027Y007642D01*
X010027Y007565D02*
X009477Y007565D01*
X009555Y007488D02*
X010027Y007488D01*
X010027Y007411D02*
X009555Y007411D01*
X009555Y007333D02*
X010027Y007333D01*
X010027Y007256D02*
X009555Y007256D01*
X009555Y007179D02*
X010027Y007179D01*
X010027Y007102D02*
X009555Y007102D01*
X009555Y007024D02*
X010027Y007024D01*
X010027Y006947D02*
X009555Y006947D01*
X009555Y006870D02*
X010027Y006870D01*
X010027Y006793D02*
X009555Y006793D01*
X009555Y006716D02*
X010027Y006716D01*
X010027Y006638D02*
X009555Y006638D01*
X009555Y006561D02*
X010027Y006561D01*
X010027Y006484D02*
X009555Y006484D01*
X009555Y006407D02*
X010027Y006407D01*
X010027Y006329D02*
X009555Y006329D01*
X009555Y006252D02*
X010027Y006252D01*
X010027Y006175D02*
X009555Y006175D01*
X009555Y006098D02*
X010027Y006098D01*
X010027Y006020D02*
X009555Y006020D01*
X009555Y005943D02*
X010027Y005943D01*
X010027Y005866D02*
X009555Y005866D01*
X009791Y006051D02*
X009102Y005362D01*
X009367Y005016D02*
X010027Y005016D01*
X010027Y005093D02*
X009444Y005093D01*
X009521Y005171D02*
X010027Y005171D01*
X010027Y005248D02*
X009555Y005248D01*
X009555Y005325D02*
X010027Y005325D01*
X010027Y005402D02*
X009555Y005402D01*
X009555Y005480D02*
X010027Y005480D01*
X008433Y005992D02*
X007980Y005992D01*
X007891Y005903D01*
X007822Y006622D02*
X008059Y006622D01*
X007822Y006622D02*
X007635Y006809D01*
X007635Y007193D01*
X007380Y006850D02*
X006633Y006850D01*
X006633Y007122D01*
X006504Y007252D01*
X006563Y007645D02*
X005933Y007645D01*
X005854Y007724D01*
X005854Y008118D01*
X005933Y008197D01*
X006169Y008197D01*
X006878Y008905D01*
X006878Y009535D01*
X007114Y009771D01*
X007429Y009771D01*
X007507Y009693D01*
X007507Y009299D01*
X007350Y009141D01*
X007350Y008039D01*
X007271Y007960D01*
X006878Y007960D01*
X006563Y007645D01*
X006637Y007720D02*
X005858Y007720D01*
X005854Y007797D02*
X006714Y007797D01*
X006791Y007874D02*
X005854Y007874D01*
X005854Y007951D02*
X006869Y007951D01*
X007340Y008029D02*
X005854Y008029D01*
X005854Y008106D02*
X007350Y008106D01*
X007350Y008183D02*
X005919Y008183D01*
X005933Y008512D02*
X006248Y008512D01*
X006720Y008984D01*
X006720Y009771D01*
X006956Y010008D01*
X007193Y010008D01*
X007567Y010382D01*
X007567Y010441D01*
X007193Y010795D02*
X007271Y010874D01*
X007070Y009728D02*
X007472Y009728D01*
X007507Y009651D02*
X006993Y009651D01*
X006916Y009573D02*
X007507Y009573D01*
X007507Y009496D02*
X006878Y009496D01*
X006878Y009419D02*
X007507Y009419D01*
X007507Y009342D02*
X006878Y009342D01*
X006878Y009264D02*
X007473Y009264D01*
X007396Y009187D02*
X006878Y009187D01*
X006878Y009110D02*
X007350Y009110D01*
X007350Y009033D02*
X006878Y009033D01*
X006878Y008956D02*
X007350Y008956D01*
X007350Y008878D02*
X006851Y008878D01*
X006773Y008801D02*
X007350Y008801D01*
X007350Y008724D02*
X006696Y008724D01*
X006619Y008647D02*
X007350Y008647D01*
X007350Y008569D02*
X006542Y008569D01*
X006464Y008492D02*
X007350Y008492D01*
X007350Y008415D02*
X006387Y008415D01*
X006310Y008338D02*
X007350Y008338D01*
X007350Y008260D02*
X006233Y008260D01*
X006341Y008801D02*
X005958Y008801D01*
X005881Y008878D02*
X006418Y008878D01*
X006495Y008956D02*
X005854Y008956D01*
X005696Y007567D02*
X005834Y007429D01*
X005834Y007252D01*
X005834Y006838D01*
X005696Y006701D01*
X005519Y006701D01*
X006189Y006701D02*
X006484Y006701D01*
X006633Y006850D01*
X006799Y006228D02*
X007035Y006228D01*
X007114Y006307D01*
X007193Y006307D01*
X007124Y005077D02*
X007114Y004988D01*
X006878Y004496D02*
X007055Y004319D01*
X007114Y004319D01*
X007822Y008029D02*
X010027Y008029D01*
X010027Y008106D02*
X007822Y008106D01*
X007822Y008183D02*
X010027Y008183D01*
X008767Y010027D02*
X008689Y010106D01*
X008689Y011582D01*
X009141Y012035D01*
X009141Y012055D01*
X008925Y012045D02*
X009397Y012045D01*
X009397Y011968D02*
X008925Y011968D01*
X008925Y011891D02*
X009397Y011891D01*
X009397Y011819D02*
X009319Y011740D01*
X008925Y011740D01*
X008925Y012449D01*
X009240Y012764D01*
X009240Y013884D01*
X010045Y013884D01*
X010045Y012467D01*
X009948Y012370D01*
X009476Y012370D01*
X009397Y012291D01*
X009397Y011819D01*
X009392Y011813D02*
X008925Y011813D01*
X008925Y012122D02*
X009397Y012122D01*
X009397Y012200D02*
X008925Y012200D01*
X008925Y012277D02*
X009397Y012277D01*
X009460Y012354D02*
X008925Y012354D01*
X008925Y012431D02*
X010010Y012431D01*
X010045Y012509D02*
X008985Y012509D01*
X009062Y012586D02*
X010045Y012586D01*
X010045Y012663D02*
X009139Y012663D01*
X009217Y012740D02*
X010045Y012740D01*
X010045Y012818D02*
X009240Y012818D01*
X009240Y012895D02*
X010045Y012895D01*
X010045Y012972D02*
X009240Y012972D01*
X009240Y013049D02*
X010045Y013049D01*
X010045Y013126D02*
X009240Y013126D01*
X009240Y013204D02*
X010045Y013204D01*
X010045Y013281D02*
X009240Y013281D01*
X009240Y013358D02*
X010045Y013358D01*
X010045Y013435D02*
X009240Y013435D01*
X009240Y013513D02*
X010045Y013513D01*
X010045Y013590D02*
X009240Y013590D01*
X009240Y013667D02*
X010045Y013667D01*
X010045Y013744D02*
X009240Y013744D01*
X009240Y013822D02*
X010045Y013822D01*
X009811Y010716D02*
X009555Y010716D01*
X007035Y013049D02*
X004407Y013049D01*
X004485Y013126D02*
X007035Y013126D01*
X003807Y012370D02*
X003807Y011504D01*
X003885Y011425D01*
X003885Y010874D01*
X003049Y009870D02*
X003049Y008777D01*
X002893Y013126D02*
X002056Y013126D01*
D29*
X002862Y010460D02*
X003049Y010273D01*
X003049Y009870D01*
X003305Y009870D02*
X003305Y010273D01*
X003492Y010460D01*
X007124Y005578D02*
X007124Y005077D01*
X007507Y006622D02*
X007380Y006750D01*
X007380Y006850D01*
X007380Y007193D01*
X007891Y007193D02*
X007970Y007271D01*
X008452Y007271D01*
X007891Y007193D02*
X007891Y007557D01*
X007901Y007567D01*
X005145Y004260D02*
X005539Y003866D01*
X005539Y002842D01*
X005667Y002714D01*
X006139Y002714D01*
X005145Y004260D02*
X005145Y004338D01*
X008137Y011366D02*
X007901Y011602D01*
X007567Y011602D01*
M02*
