G75*
%MOIN*%
%OFA0B0*%
%FSLAX24Y24*%
%IPPOS*%
%LPD*%
%AMOC8*
5,1,8,0,0,1.08239X$1,22.5*
%
%ADD10C,0.0000*%
%ADD11R,0.0177X0.0394*%
%ADD12R,0.0433X0.0394*%
%ADD13R,0.0394X0.0433*%
%ADD14R,0.0630X0.0866*%
%ADD15R,0.0236X0.0354*%
%ADD16R,0.0591X0.0512*%
%ADD17R,0.0512X0.0591*%
%ADD18R,0.0866X0.0630*%
%ADD19R,0.0217X0.0472*%
%ADD20R,0.0394X0.0394*%
%ADD21R,0.0394X0.0551*%
%ADD22R,0.0709X0.0551*%
%ADD23R,0.0591X0.0157*%
D10*
X001917Y001425D02*
X001917Y014023D01*
X010185Y014023D01*
X010185Y001425D01*
X001917Y001425D01*
D11*
X002793Y008256D03*
X003049Y008256D03*
X003305Y008256D03*
X003561Y008256D03*
X003561Y009870D03*
X003305Y009870D03*
X003049Y009870D03*
X002793Y009870D03*
X007124Y007193D03*
X007380Y007193D03*
X007635Y007193D03*
X007891Y007193D03*
X007891Y005578D03*
X007635Y005578D03*
X007380Y005578D03*
X007124Y005578D03*
D12*
X007114Y004988D03*
X007114Y004319D03*
X007980Y003334D03*
X007980Y002665D03*
X009082Y002823D03*
X009082Y003492D03*
X009102Y005992D03*
X008433Y005992D03*
X008452Y006602D03*
X008452Y007271D03*
X008137Y009358D03*
X008137Y010027D03*
X008137Y010697D03*
X008137Y011366D03*
X009141Y010716D03*
X008767Y010027D03*
X008767Y009358D03*
X009811Y010716D03*
X009791Y011956D03*
X009791Y012626D03*
X008787Y013078D03*
X008118Y013078D03*
X007527Y013078D03*
X006858Y013078D03*
X004673Y009949D03*
X004279Y010460D03*
X004279Y011130D03*
X003492Y011130D03*
X003492Y010460D03*
X002862Y010460D03*
X002862Y011130D03*
X004673Y009279D03*
X004752Y008689D03*
X004752Y008019D03*
X005303Y008019D03*
X005303Y008689D03*
X005519Y006701D03*
X006189Y006701D03*
X006011Y005618D03*
X006011Y004949D03*
X004752Y004791D03*
X004752Y005460D03*
X004200Y005460D03*
X004200Y004791D03*
X003511Y005362D03*
X002842Y005362D03*
X003315Y013787D03*
X003984Y013787D03*
D13*
X003984Y013236D03*
X003984Y012606D03*
X003315Y012606D03*
X003315Y013236D03*
X002232Y011130D03*
X002232Y010460D03*
X002232Y009870D03*
X002232Y009201D03*
X002232Y008531D03*
X002232Y007862D03*
X002232Y005854D03*
X002232Y005185D03*
X003177Y003964D03*
X003177Y003295D03*
X004122Y006838D03*
X004122Y007508D03*
X004122Y008019D03*
X004122Y008689D03*
X004122Y009279D03*
X004122Y009949D03*
X004752Y007429D03*
X004752Y006760D03*
X005834Y007252D03*
X006504Y007252D03*
X006563Y005618D03*
X006563Y004949D03*
X007665Y004830D03*
X007665Y004161D03*
X008196Y004102D03*
X008196Y004732D03*
X008433Y005362D03*
X008866Y004732D03*
X008866Y004102D03*
X008531Y003492D03*
X008531Y002823D03*
X007429Y002665D03*
X007429Y003334D03*
X006878Y002390D03*
X006878Y001720D03*
X009102Y005362D03*
X009082Y006602D03*
X009082Y007271D03*
X009141Y011346D03*
X009811Y011346D03*
X008787Y013708D03*
X008118Y013708D03*
X007527Y013708D03*
X006858Y013708D03*
D14*
X007035Y008354D03*
X008137Y008354D03*
D15*
X007567Y011602D03*
X007193Y011602D03*
X006819Y011602D03*
X006819Y012508D03*
X007567Y012508D03*
D16*
X004830Y012941D03*
X004830Y013689D03*
X002311Y013610D03*
X002311Y012862D03*
X009004Y008728D03*
X009004Y007980D03*
X009791Y007980D03*
X009791Y008728D03*
X009791Y006051D03*
X009791Y005303D03*
X009791Y003610D03*
X009791Y002862D03*
D17*
X006149Y010008D03*
X006149Y010795D03*
X006149Y011582D03*
X005401Y011582D03*
X005401Y010795D03*
X005401Y010008D03*
X004181Y011897D03*
X003433Y011897D03*
X008393Y012055D03*
X009141Y012055D03*
D18*
X005854Y012370D03*
X005854Y013472D03*
D19*
X003551Y007055D03*
X003177Y007055D03*
X002803Y007055D03*
X002803Y006031D03*
X003551Y006031D03*
D20*
X004043Y006149D03*
X004830Y006149D03*
X002232Y006464D03*
X002232Y007252D03*
D21*
X006819Y010441D03*
X007193Y009575D03*
X007567Y010441D03*
D22*
X006169Y009260D03*
X006169Y007921D03*
D23*
X006139Y003994D03*
X006139Y003738D03*
X006139Y003482D03*
X006139Y003226D03*
X006139Y002970D03*
X006139Y002714D03*
X006139Y002458D03*
X006139Y002202D03*
X006139Y001947D03*
X006139Y001691D03*
X003836Y001691D03*
X003836Y001947D03*
X003836Y002202D03*
X003836Y002458D03*
X003836Y002714D03*
X003836Y002970D03*
X003836Y003226D03*
X003836Y003482D03*
X003836Y003738D03*
X003836Y003994D03*
M02*
