G75*
%MOIN*%
%OFA0B0*%
%FSLAX24Y24*%
%IPPOS*%
%LPD*%
%AMOC8*
5,1,8,0,0,1.08239X$1,22.5*
%
%ADD10C,0.0000*%
%ADD11C,0.0079*%
%ADD12C,0.0080*%
%ADD13C,0.0157*%
%ADD14C,0.0060*%
%ADD15C,0.0079*%
%ADD16R,0.0620X0.0240*%
%ADD17C,0.0050*%
D10*
X001917Y001425D02*
X001917Y014023D01*
X010185Y014023D01*
X010185Y001425D01*
X001917Y001425D01*
D11*
X002941Y003551D02*
X002941Y003708D01*
X003413Y003708D02*
X003413Y003551D01*
X003964Y005047D02*
X003964Y005204D01*
X004437Y005204D02*
X004437Y005047D01*
X004515Y005047D02*
X004515Y005204D01*
X004988Y005204D02*
X004988Y005047D01*
X004594Y005913D02*
X004279Y005913D01*
X004279Y006386D02*
X004594Y006386D01*
X004515Y007015D02*
X004515Y007173D01*
X004358Y007252D02*
X004358Y007094D01*
X003885Y007094D02*
X003885Y007252D01*
X003885Y008275D02*
X003885Y008433D01*
X004358Y008433D02*
X004358Y008275D01*
X004515Y008275D02*
X004515Y008433D01*
X004988Y008433D02*
X004988Y008275D01*
X005067Y008275D02*
X005067Y008433D01*
X005539Y008433D02*
X005539Y008275D01*
X006090Y007488D02*
X006248Y007488D01*
X006248Y007015D02*
X006090Y007015D01*
X005933Y006937D02*
X005775Y006937D01*
X005775Y006464D02*
X005933Y006464D01*
X005775Y005362D02*
X005775Y005204D01*
X006248Y005204D02*
X006248Y005362D01*
X006326Y005362D02*
X006326Y005204D01*
X006799Y005204D02*
X006799Y005362D01*
X006878Y004732D02*
X006878Y004575D01*
X007350Y004575D02*
X007350Y004732D01*
X007429Y004575D02*
X007429Y004417D01*
X007901Y004417D02*
X007901Y004575D01*
X008452Y004496D02*
X008610Y004496D01*
X008610Y004338D02*
X008452Y004338D01*
X008452Y003866D02*
X008610Y003866D01*
X008767Y003236D02*
X008767Y003078D01*
X008846Y003078D02*
X008846Y003236D01*
X009319Y003236D02*
X009319Y003078D01*
X009476Y003157D02*
X009476Y003315D01*
X010106Y003315D02*
X010106Y003157D01*
X008846Y005126D02*
X008689Y005126D01*
X008610Y004968D02*
X008452Y004968D01*
X008689Y005598D02*
X008846Y005598D01*
X008846Y005756D02*
X008689Y005756D01*
X008689Y006228D02*
X008846Y006228D01*
X008846Y006858D02*
X008846Y007015D01*
X008689Y007015D02*
X008689Y006858D01*
X008216Y006858D02*
X008216Y007015D01*
X007744Y007882D02*
X007429Y007882D01*
X007429Y008827D02*
X007744Y008827D01*
X007901Y009614D02*
X007901Y009771D01*
X007822Y009693D02*
X007822Y010244D01*
X007822Y009693D02*
X007429Y009693D01*
X006956Y009693D02*
X006563Y009693D01*
X006563Y010244D01*
X005854Y010323D02*
X005696Y010323D01*
X005696Y010480D02*
X005854Y010480D01*
X005854Y011110D02*
X005696Y011110D01*
X005696Y011267D02*
X005854Y011267D01*
X005854Y011897D02*
X005696Y011897D01*
X005381Y012764D02*
X005381Y013078D01*
X005145Y013236D02*
X005145Y013393D01*
X004515Y013393D02*
X004515Y013236D01*
X003728Y013472D02*
X003570Y013472D01*
X003570Y013551D02*
X003728Y013551D01*
X003728Y013000D02*
X003570Y013000D01*
X003570Y012842D02*
X003728Y012842D01*
X003728Y012370D02*
X003570Y012370D01*
X003728Y012212D02*
X003885Y012212D01*
X003885Y011582D02*
X003728Y011582D01*
X003728Y010874D02*
X003728Y010716D01*
X004043Y010716D02*
X004043Y010874D01*
X004515Y010874D02*
X004515Y010716D01*
X004437Y009693D02*
X004437Y009535D01*
X004358Y009535D02*
X004358Y009693D01*
X004909Y009693D02*
X004909Y009535D01*
X005696Y009693D02*
X005854Y009693D01*
X004988Y007173D02*
X004988Y007015D01*
X003256Y005598D02*
X003098Y005598D01*
X003098Y005126D02*
X003256Y005126D01*
X002468Y005441D02*
X002468Y005598D01*
X001996Y005598D02*
X001996Y005441D01*
X001996Y006701D02*
X001996Y007015D01*
X002468Y007015D02*
X002468Y006701D01*
X002468Y008118D02*
X002468Y008275D01*
X001996Y008275D02*
X001996Y008118D01*
X001996Y009456D02*
X001996Y009614D01*
X002468Y009614D02*
X002468Y009456D01*
X002468Y010716D02*
X002468Y010874D01*
X002626Y010874D02*
X002626Y010716D01*
X003098Y010716D02*
X003098Y010874D01*
X003256Y010874D02*
X003256Y010716D01*
X003885Y009693D02*
X003885Y009535D01*
X001996Y010716D02*
X001996Y010874D01*
X001996Y013157D02*
X001996Y013315D01*
X002626Y013315D02*
X002626Y013157D01*
X006326Y013078D02*
X006326Y012764D01*
X007114Y012842D02*
X007271Y012842D01*
X007271Y013315D02*
X007114Y013315D01*
X007114Y013472D02*
X007271Y013472D01*
X007271Y013945D02*
X007114Y013945D01*
X008374Y013945D02*
X008531Y013945D01*
X008531Y013472D02*
X008374Y013472D01*
X008374Y013315D02*
X008531Y013315D01*
X008531Y012842D02*
X008374Y012842D01*
X008689Y012370D02*
X008846Y012370D01*
X008846Y011740D02*
X008689Y011740D01*
X008374Y011110D02*
X008374Y010952D01*
X007901Y010952D02*
X007901Y011110D01*
X008374Y009771D02*
X008374Y009614D01*
X008531Y009614D02*
X008531Y009771D01*
X009004Y009771D02*
X009004Y009614D01*
X009397Y010480D02*
X009555Y010480D01*
X009555Y010952D02*
X009397Y010952D01*
X009397Y011110D02*
X009555Y011110D01*
X009555Y011582D02*
X009397Y011582D01*
X009555Y012212D02*
X009555Y012370D01*
X010027Y012370D02*
X010027Y012212D01*
X010106Y008433D02*
X010106Y008275D01*
X009476Y008275D02*
X009476Y008433D01*
X009319Y008433D02*
X009319Y008275D01*
X008689Y008275D02*
X008689Y008433D01*
X009319Y007015D02*
X009319Y006858D01*
X009476Y005756D02*
X009476Y005598D01*
X010106Y005598D02*
X010106Y005756D01*
X008295Y003236D02*
X008295Y003078D01*
X008216Y003078D02*
X008216Y002921D01*
X007744Y002921D02*
X007744Y003078D01*
X007665Y003078D02*
X007665Y002921D01*
X007193Y002921D02*
X007193Y003078D01*
X007114Y002134D02*
X007114Y001976D01*
X006641Y001976D02*
X006641Y002134D01*
X005145Y002606D02*
X005147Y002624D01*
X005153Y002640D01*
X005162Y002655D01*
X005175Y002668D01*
X005190Y002677D01*
X005206Y002683D01*
X005224Y002685D01*
X005242Y002683D01*
X005258Y002677D01*
X005273Y002668D01*
X005286Y002655D01*
X005295Y002640D01*
X005301Y002624D01*
X005303Y002606D01*
X005301Y002588D01*
X005295Y002572D01*
X005286Y002557D01*
X005273Y002544D01*
X005258Y002535D01*
X005242Y002529D01*
X005224Y002527D01*
X005206Y002529D01*
X005190Y002535D01*
X005175Y002544D01*
X005162Y002557D01*
X005153Y002572D01*
X005147Y002588D01*
X005145Y002606D01*
X005382Y002292D02*
X005371Y002255D01*
X005356Y002219D01*
X005338Y002185D01*
X005318Y002153D01*
X005294Y002123D01*
X005267Y002095D01*
X005238Y002070D01*
X005206Y002048D01*
X005173Y002029D01*
X005138Y002013D01*
X005102Y002000D01*
X005064Y001991D01*
X005026Y001986D01*
X004988Y001984D01*
X004950Y001986D01*
X004912Y001991D01*
X004874Y002000D01*
X004838Y002013D01*
X004803Y002029D01*
X004770Y002048D01*
X004738Y002070D01*
X004709Y002095D01*
X004682Y002123D01*
X004658Y002153D01*
X004638Y002185D01*
X004620Y002219D01*
X004605Y002255D01*
X004594Y002292D01*
X004673Y002606D02*
X004675Y002624D01*
X004681Y002640D01*
X004690Y002655D01*
X004703Y002668D01*
X004718Y002677D01*
X004734Y002683D01*
X004752Y002685D01*
X004770Y002683D01*
X004786Y002677D01*
X004801Y002668D01*
X004814Y002655D01*
X004823Y002640D01*
X004829Y002624D01*
X004831Y002606D01*
X004829Y002588D01*
X004823Y002572D01*
X004814Y002557D01*
X004801Y002544D01*
X004786Y002535D01*
X004770Y002529D01*
X004752Y002527D01*
X004734Y002529D01*
X004718Y002535D01*
X004703Y002544D01*
X004690Y002557D01*
X004681Y002572D01*
X004675Y002588D01*
X004673Y002606D01*
X004988Y002370D02*
X004988Y002291D01*
D12*
X006956Y005834D02*
X006956Y006937D01*
X008059Y006937D01*
X008059Y005834D01*
X006956Y005834D01*
X006366Y008393D02*
X005972Y008393D01*
X006169Y008787D01*
X006366Y008393D01*
X003728Y008512D02*
X002626Y008512D01*
X002626Y009614D01*
X003728Y009614D01*
X003728Y008512D01*
D13*
X002783Y008669D03*
X007901Y006779D03*
D14*
X009262Y004946D02*
X009262Y004746D01*
X009262Y004946D02*
X009462Y004946D01*
X009962Y004946D02*
X010162Y004946D01*
X010162Y004746D01*
X010162Y004246D02*
X010162Y004046D01*
X009962Y004046D01*
X009462Y004046D02*
X009262Y004046D01*
X009262Y004246D01*
X009262Y002347D02*
X009262Y002147D01*
X009139Y002147D02*
X009139Y002347D01*
X008939Y002347D01*
X009262Y002347D02*
X009462Y002347D01*
X009262Y001647D02*
X009262Y001447D01*
X009462Y001447D01*
X009139Y001447D02*
X008939Y001447D01*
X009139Y001447D02*
X009139Y001647D01*
X008439Y001447D02*
X008239Y001447D01*
X008239Y001647D01*
X008239Y002147D02*
X008239Y002347D01*
X008439Y002347D01*
X009962Y002347D02*
X010162Y002347D01*
X010162Y002147D01*
X010162Y001647D02*
X010162Y001447D01*
X009962Y001447D01*
X010083Y009400D02*
X009883Y009400D01*
X010083Y009400D02*
X010083Y009600D01*
X010083Y010100D02*
X010083Y010300D01*
X009883Y010300D01*
X009383Y010300D02*
X009183Y010300D01*
X009183Y010100D01*
X009183Y009600D02*
X009183Y009400D01*
X009383Y009400D01*
X007752Y011747D02*
X007752Y012362D01*
X006632Y012362D02*
X006632Y011747D01*
X009262Y013101D02*
X009462Y013101D01*
X009262Y013101D02*
X009262Y013301D01*
X009262Y013801D02*
X009262Y014001D01*
X009462Y014001D01*
X009962Y014001D02*
X010162Y014001D01*
X010162Y013801D01*
X010162Y013301D02*
X010162Y013101D01*
X009962Y013101D01*
X003737Y006852D02*
X003737Y006234D01*
X003700Y006234D01*
X003382Y006234D02*
X002971Y006234D01*
X002654Y006234D02*
X002617Y006234D01*
X002617Y006852D01*
X002654Y006852D01*
X002971Y006852D02*
X003008Y006852D01*
X003345Y006852D02*
X003382Y006852D01*
X003700Y006852D02*
X003737Y006852D01*
X002839Y004395D02*
X002639Y004395D01*
X002839Y004395D02*
X002839Y004195D01*
X002839Y003695D02*
X002839Y003495D01*
X002639Y003495D01*
X002639Y003371D02*
X002839Y003371D01*
X002839Y003171D01*
X002839Y002671D02*
X002839Y002471D01*
X002639Y002471D01*
X002639Y002347D02*
X002839Y002347D01*
X002839Y002147D01*
X002839Y001647D02*
X002839Y001447D01*
X002639Y001447D01*
X002139Y001447D02*
X001939Y001447D01*
X001939Y001647D01*
X001939Y002147D02*
X001939Y002347D01*
X002139Y002347D01*
X002139Y002471D02*
X001939Y002471D01*
X001939Y002671D01*
X001939Y003171D02*
X001939Y003371D01*
X002139Y003371D01*
X002139Y003495D02*
X001939Y003495D01*
X001939Y003695D01*
X001939Y004195D02*
X001939Y004395D01*
X002139Y004395D01*
X002218Y011526D02*
X002018Y011526D01*
X002018Y011726D01*
X002018Y012226D02*
X002018Y012426D01*
X002218Y012426D01*
X002718Y012426D02*
X002918Y012426D01*
X002918Y012226D01*
X002918Y011726D02*
X002918Y011526D01*
X002718Y011526D01*
D15*
X006740Y011858D03*
D16*
X006169Y008810D03*
D17*
X005854Y004122D02*
X004122Y004122D01*
X004122Y001563D01*
X005854Y001563D01*
X005854Y004122D01*
X005578Y001740D02*
X005580Y001758D01*
X005586Y001774D01*
X005595Y001789D01*
X005608Y001802D01*
X005623Y001811D01*
X005639Y001817D01*
X005657Y001819D01*
X005675Y001817D01*
X005691Y001811D01*
X005706Y001802D01*
X005719Y001789D01*
X005728Y001774D01*
X005734Y001758D01*
X005736Y001740D01*
X005734Y001722D01*
X005728Y001706D01*
X005719Y001691D01*
X005706Y001678D01*
X005691Y001669D01*
X005675Y001663D01*
X005657Y001661D01*
X005639Y001663D01*
X005623Y001669D01*
X005608Y001678D01*
X005595Y001691D01*
X005586Y001706D01*
X005580Y001722D01*
X005578Y001740D01*
M02*
