G75*
%MOIN*%
%OFA0B0*%
%FSLAX24Y24*%
%IPPOS*%
%LPD*%
%AMOC8*
5,1,8,0,0,1.08239X$1,22.5*
%
%ADD10C,0.0000*%
%ADD11OC8,0.0850*%
%ADD12R,0.0500X0.1000*%
%ADD13C,0.0160*%
%ADD14C,0.0238*%
%ADD15C,0.0079*%
%ADD16C,0.0240*%
D10*
X001917Y001425D02*
X001917Y014023D01*
X010185Y014023D01*
X010185Y001425D01*
X001917Y001425D01*
D11*
X002389Y001897D03*
X002389Y002921D03*
X002389Y003945D03*
X002468Y011976D03*
X009712Y013551D03*
X009633Y009850D03*
X009712Y004496D03*
X009712Y001897D03*
X008689Y001897D03*
D12*
X005775Y002055D03*
X005067Y002055D03*
X004358Y002055D03*
X003649Y002055D03*
D13*
X003604Y002072D02*
X002954Y002072D01*
X002954Y002131D02*
X002677Y002409D01*
X002954Y002687D01*
X002954Y003155D01*
X002705Y003405D01*
X002994Y003694D01*
X002994Y003925D01*
X002409Y003925D01*
X002409Y003965D01*
X002369Y003965D01*
X002369Y004550D01*
X002139Y004550D01*
X002097Y004508D01*
X002097Y006712D01*
X002180Y006678D01*
X002237Y006678D01*
X002445Y006470D01*
X002445Y006413D01*
X002485Y006318D01*
X002558Y006245D01*
X002653Y006205D01*
X002756Y006205D01*
X002851Y006245D01*
X002924Y006318D01*
X002963Y006413D01*
X002963Y006516D01*
X002924Y006611D01*
X002851Y006684D01*
X002756Y006723D01*
X002699Y006723D01*
X002491Y006931D01*
X002491Y006988D01*
X002452Y007083D01*
X002379Y007156D01*
X002283Y007196D01*
X002180Y007196D01*
X002097Y007161D01*
X002097Y007736D01*
X002180Y007701D01*
X002283Y007701D01*
X002379Y007741D01*
X002452Y007814D01*
X002491Y007909D01*
X002491Y008012D01*
X002452Y008106D01*
X002452Y009626D01*
X002491Y009720D01*
X002491Y009823D01*
X002452Y009918D01*
X002379Y009991D01*
X002283Y010030D01*
X002180Y010030D01*
X002097Y009996D01*
X002097Y011548D01*
X002234Y011411D01*
X002702Y011411D01*
X003033Y011742D01*
X003033Y012210D01*
X002702Y012541D01*
X002234Y012541D01*
X002097Y012404D01*
X002097Y013843D01*
X009206Y013843D01*
X009147Y013785D01*
X009147Y013317D01*
X009478Y012986D01*
X009946Y012986D01*
X010005Y013044D01*
X010005Y010335D01*
X009884Y010455D01*
X009653Y010455D01*
X009653Y009870D01*
X009613Y009870D01*
X009613Y009830D01*
X009028Y009830D01*
X009028Y009600D01*
X009383Y009245D01*
X009613Y009245D01*
X009613Y009830D01*
X009653Y009830D01*
X009653Y009245D01*
X009884Y009245D01*
X010005Y009366D01*
X010005Y005002D01*
X009946Y005061D01*
X009478Y005061D01*
X009147Y004730D01*
X009147Y004262D01*
X009478Y003931D01*
X009946Y003931D01*
X010005Y003989D01*
X010005Y002461D01*
X009963Y002502D01*
X009732Y002502D01*
X009732Y001917D01*
X009692Y001917D01*
X009692Y001877D01*
X009107Y001877D01*
X008709Y001877D01*
X008709Y001917D01*
X009692Y001917D01*
X009692Y002502D01*
X009462Y002502D01*
X009200Y002241D01*
X008939Y002502D01*
X008709Y002502D01*
X008709Y001917D01*
X008669Y001917D01*
X008669Y001877D01*
X008084Y001877D01*
X008084Y001647D01*
X008125Y001605D01*
X007684Y001605D01*
X007954Y001875D01*
X008048Y001914D01*
X008084Y001950D01*
X008084Y001917D01*
X008669Y001917D01*
X008669Y002502D01*
X008438Y002502D01*
X008149Y002213D01*
X008121Y002280D01*
X008048Y002353D01*
X007953Y002393D01*
X007850Y002393D01*
X007754Y002353D01*
X007682Y002280D01*
X007643Y002186D01*
X007338Y001881D01*
X006165Y001881D01*
X006165Y002613D01*
X006083Y002695D01*
X005467Y002695D01*
X005421Y002649D01*
X005375Y002695D01*
X004759Y002695D01*
X004712Y002649D01*
X004666Y002695D01*
X004050Y002695D01*
X004032Y002677D01*
X004010Y002699D01*
X003969Y002723D01*
X003923Y002735D01*
X003694Y002735D01*
X003694Y002100D01*
X003604Y002100D01*
X003604Y002010D01*
X003219Y002010D01*
X003219Y001605D01*
X002896Y001605D01*
X002954Y001663D01*
X002954Y002131D01*
X002855Y002231D02*
X003219Y002231D01*
X003219Y002100D02*
X003604Y002100D01*
X003604Y002735D01*
X003376Y002735D01*
X003330Y002723D01*
X003289Y002699D01*
X003255Y002665D01*
X003231Y002624D01*
X003219Y002579D01*
X003219Y002100D01*
X003219Y001914D02*
X002954Y001914D01*
X002954Y001755D02*
X003219Y001755D01*
X003219Y002389D02*
X002697Y002389D01*
X002815Y002548D02*
X003219Y002548D01*
X003301Y002706D02*
X002954Y002706D01*
X002954Y002865D02*
X010005Y002865D01*
X010005Y003023D02*
X002954Y003023D01*
X002928Y003182D02*
X003022Y003182D01*
X003030Y003174D02*
X003125Y003134D01*
X003228Y003134D01*
X003324Y003174D01*
X003396Y003247D01*
X003435Y003341D01*
X003712Y003617D01*
X003712Y004429D01*
X003751Y004523D01*
X003751Y004626D01*
X003711Y004721D01*
X003638Y004794D01*
X003543Y004834D01*
X003440Y004834D01*
X003345Y004794D01*
X003272Y004721D01*
X003233Y004626D01*
X003233Y004523D01*
X003272Y004429D01*
X003272Y003800D01*
X003124Y003652D01*
X003030Y003613D01*
X002957Y003540D01*
X002918Y003445D01*
X002918Y003342D01*
X002957Y003247D01*
X003030Y003174D01*
X002918Y003340D02*
X002769Y003340D01*
X002799Y003499D02*
X002940Y003499D01*
X002958Y003657D02*
X003129Y003657D01*
X002994Y003816D02*
X003272Y003816D01*
X003272Y003974D02*
X002994Y003974D01*
X002994Y003965D02*
X002994Y004195D01*
X002640Y004550D01*
X002409Y004550D01*
X002409Y003965D01*
X002994Y003965D01*
X002994Y004133D02*
X003272Y004133D01*
X003272Y004291D02*
X002898Y004291D01*
X002740Y004450D02*
X003263Y004450D01*
X003233Y004608D02*
X002097Y004608D01*
X002097Y004767D02*
X003318Y004767D01*
X003492Y004575D02*
X003492Y003708D01*
X003177Y003393D01*
X003331Y003182D02*
X010005Y003182D01*
X010005Y003340D02*
X003435Y003340D01*
X003593Y003499D02*
X010005Y003499D01*
X010005Y003657D02*
X007114Y003657D01*
X007103Y003646D02*
X007176Y003719D01*
X007215Y003814D01*
X007215Y003917D01*
X007176Y004013D01*
X007136Y004053D01*
X007136Y004185D01*
X007188Y004238D01*
X007293Y004343D01*
X007293Y004649D01*
X007214Y004728D01*
X007214Y005121D01*
X006899Y005436D01*
X006806Y005529D01*
X006782Y005587D01*
X006709Y005660D01*
X006614Y005700D01*
X006511Y005700D01*
X006506Y005698D01*
X006506Y006145D01*
X005956Y006695D01*
X005956Y006752D01*
X005916Y006847D01*
X005843Y006920D01*
X005748Y006960D01*
X005645Y006960D01*
X005591Y006937D01*
X005601Y006947D01*
X005641Y007043D01*
X005641Y007146D01*
X005631Y007169D01*
X006086Y007624D01*
X006243Y007624D01*
X006348Y007729D01*
X006821Y008201D01*
X006821Y008901D01*
X006716Y009006D01*
X006541Y009181D01*
X007267Y009907D01*
X007372Y010012D01*
X007372Y010608D01*
X007412Y010648D01*
X007452Y010743D01*
X007452Y010847D01*
X007412Y010942D01*
X007339Y011015D01*
X007244Y011054D01*
X007141Y011054D01*
X007046Y011015D01*
X006973Y010942D01*
X006933Y010847D01*
X006933Y010743D01*
X006973Y010648D01*
X007013Y010608D01*
X007013Y010161D01*
X006331Y009478D01*
X006007Y009478D01*
X005771Y009715D01*
X005465Y009715D01*
X005360Y009609D01*
X005307Y009557D01*
X005202Y009452D01*
X005202Y009146D01*
X005360Y008988D01*
X005465Y008883D01*
X005622Y008883D01*
X005780Y008725D01*
X005713Y008658D01*
X005689Y008600D01*
X005596Y008507D01*
X004756Y007667D01*
X003969Y007667D01*
X003654Y007352D01*
X003549Y007247D01*
X003549Y006705D01*
X003654Y006600D01*
X003864Y006390D01*
X003864Y005996D01*
X003969Y005891D01*
X004021Y005839D01*
X004021Y005760D01*
X004087Y005694D01*
X004060Y005666D01*
X004020Y005571D01*
X004020Y005468D01*
X004060Y005373D01*
X004132Y005300D01*
X004228Y005260D01*
X004331Y005260D01*
X004426Y005300D01*
X004499Y005373D01*
X004538Y005468D01*
X004538Y005571D01*
X004501Y005660D01*
X004583Y005694D01*
X004656Y005766D01*
X004696Y005862D01*
X004696Y005965D01*
X004661Y006049D01*
X005195Y006049D01*
X005235Y006008D01*
X005330Y005969D01*
X005433Y005969D01*
X005528Y006008D01*
X005601Y006081D01*
X005641Y006177D01*
X005641Y006280D01*
X005601Y006375D01*
X005528Y006448D01*
X005433Y006487D01*
X005330Y006487D01*
X005235Y006448D01*
X005195Y006407D01*
X004624Y006407D01*
X004583Y006448D01*
X004488Y006487D01*
X004385Y006487D01*
X004380Y006485D01*
X004380Y006617D01*
X004275Y006722D01*
X004274Y006723D01*
X004341Y006790D01*
X004376Y006874D01*
X005079Y006874D01*
X005159Y006954D01*
X005162Y006947D01*
X005235Y006875D01*
X005330Y006835D01*
X005433Y006835D01*
X005487Y006858D01*
X005477Y006847D01*
X005437Y006752D01*
X005437Y006649D01*
X005477Y006554D01*
X005550Y006481D01*
X005645Y006441D01*
X005702Y006441D01*
X006147Y005996D01*
X006147Y005288D01*
X006252Y005183D01*
X006410Y005025D01*
X006567Y005025D01*
X006698Y004894D01*
X006698Y004683D01*
X006658Y004643D01*
X006619Y004547D01*
X006619Y004444D01*
X006658Y004349D01*
X006731Y004276D01*
X006777Y004257D01*
X006777Y004053D01*
X006737Y004013D01*
X006697Y003917D01*
X006697Y003814D01*
X006737Y003719D01*
X006810Y003646D01*
X006905Y003607D01*
X007008Y003607D01*
X007103Y003646D01*
X007215Y003816D02*
X010005Y003816D01*
X009990Y003974D02*
X010005Y003974D01*
X009435Y003974D02*
X007192Y003974D01*
X007136Y004133D02*
X009276Y004133D01*
X009147Y004291D02*
X007242Y004291D01*
X007293Y004450D02*
X009147Y004450D01*
X009147Y004608D02*
X007293Y004608D01*
X007214Y004767D02*
X009184Y004767D01*
X009343Y004925D02*
X007214Y004925D01*
X007214Y005084D02*
X010005Y005084D01*
X010005Y005242D02*
X007093Y005242D01*
X006935Y005401D02*
X010005Y005401D01*
X010005Y005559D02*
X006794Y005559D01*
X006506Y005718D02*
X010005Y005718D01*
X010005Y005876D02*
X006506Y005876D01*
X006506Y006035D02*
X010005Y006035D01*
X010005Y006193D02*
X007426Y006193D01*
X007412Y006160D02*
X007452Y006255D01*
X007452Y006358D01*
X007451Y006361D01*
X007451Y006365D01*
X007456Y006363D01*
X007559Y006363D01*
X007654Y006402D01*
X007727Y006475D01*
X007751Y006533D01*
X007766Y006547D01*
X007800Y006582D01*
X007800Y006570D01*
X007839Y006475D01*
X007912Y006402D01*
X008007Y006363D01*
X008110Y006363D01*
X008205Y006402D01*
X008278Y006475D01*
X008318Y006570D01*
X008318Y006673D01*
X008278Y006769D01*
X008251Y006796D01*
X008789Y007335D01*
X008789Y008954D01*
X008829Y008995D01*
X008869Y009090D01*
X008869Y009193D01*
X008829Y009288D01*
X008757Y009361D01*
X008661Y009401D01*
X008558Y009401D01*
X008537Y009392D01*
X008514Y009446D01*
X008442Y009519D01*
X008346Y009558D01*
X008317Y009558D01*
X008317Y009776D01*
X009078Y010537D01*
X009368Y010537D01*
X009408Y010497D01*
X009503Y010457D01*
X009606Y010457D01*
X009701Y010497D01*
X009774Y010570D01*
X009814Y010665D01*
X009814Y010768D01*
X009774Y010863D01*
X009701Y010936D01*
X009606Y010975D01*
X009503Y010975D01*
X009408Y010936D01*
X009368Y010896D01*
X008929Y010896D01*
X008063Y010030D01*
X007958Y009924D01*
X007958Y009531D01*
X007879Y009452D01*
X007879Y009067D01*
X008116Y008831D01*
X008116Y007719D01*
X008048Y007786D01*
X007953Y007826D01*
X007850Y007826D01*
X007754Y007786D01*
X007682Y007713D01*
X007642Y007618D01*
X007642Y007515D01*
X007675Y007436D01*
X007433Y007195D01*
X007276Y007195D01*
X007039Y006959D01*
X006934Y006854D01*
X006934Y006721D01*
X006929Y006723D01*
X006826Y006723D01*
X006731Y006684D01*
X006658Y006611D01*
X006619Y006516D01*
X006619Y006413D01*
X006658Y006318D01*
X006731Y006245D01*
X006826Y006205D01*
X006929Y006205D01*
X006951Y006214D01*
X006973Y006160D01*
X007046Y006087D01*
X007141Y006048D01*
X007244Y006048D01*
X007339Y006087D01*
X007412Y006160D01*
X007452Y006352D02*
X010005Y006352D01*
X010005Y006510D02*
X008293Y006510D01*
X008318Y006669D02*
X010005Y006669D01*
X010005Y006827D02*
X008282Y006827D01*
X008440Y006986D02*
X010005Y006986D01*
X010005Y007144D02*
X008599Y007144D01*
X008757Y007303D02*
X010005Y007303D01*
X010005Y007461D02*
X008789Y007461D01*
X008789Y007620D02*
X010005Y007620D01*
X010005Y007778D02*
X008789Y007778D01*
X008789Y007937D02*
X010005Y007937D01*
X010005Y008095D02*
X008789Y008095D01*
X008789Y008254D02*
X010005Y008254D01*
X010005Y008412D02*
X008789Y008412D01*
X008789Y008571D02*
X010005Y008571D01*
X010005Y008729D02*
X008789Y008729D01*
X008789Y008888D02*
X010005Y008888D01*
X010005Y009046D02*
X008851Y009046D01*
X008864Y009205D02*
X010005Y009205D01*
X010002Y009363D02*
X010005Y009363D01*
X009653Y009363D02*
X009613Y009363D01*
X009613Y009522D02*
X009653Y009522D01*
X009653Y009680D02*
X009613Y009680D01*
X009613Y009839D02*
X008380Y009839D01*
X008317Y009680D02*
X009028Y009680D01*
X009106Y009522D02*
X008434Y009522D01*
X008751Y009363D02*
X009265Y009363D01*
X009028Y009870D02*
X009613Y009870D01*
X009613Y010455D01*
X009383Y010455D01*
X009028Y010101D01*
X009028Y009870D01*
X009028Y009997D02*
X008538Y009997D01*
X008697Y010156D02*
X009083Y010156D01*
X009242Y010314D02*
X008855Y010314D01*
X009014Y010473D02*
X009466Y010473D01*
X009644Y010473D02*
X010005Y010473D01*
X010005Y010631D02*
X009800Y010631D01*
X009805Y010790D02*
X010005Y010790D01*
X010005Y010948D02*
X009672Y010948D01*
X009438Y010948D02*
X007406Y010948D01*
X007452Y010790D02*
X008823Y010790D01*
X008665Y010631D02*
X007395Y010631D01*
X007372Y010473D02*
X008506Y010473D01*
X008348Y010314D02*
X007372Y010314D01*
X007372Y010156D02*
X008189Y010156D01*
X008031Y009997D02*
X007357Y009997D01*
X007199Y009839D02*
X007958Y009839D01*
X007958Y009680D02*
X007040Y009680D01*
X006882Y009522D02*
X007949Y009522D01*
X007879Y009363D02*
X006723Y009363D01*
X006565Y009205D02*
X007879Y009205D01*
X007900Y009046D02*
X006675Y009046D01*
X006821Y008888D02*
X008059Y008888D01*
X008116Y008729D02*
X006821Y008729D01*
X006821Y008571D02*
X008116Y008571D01*
X008116Y008412D02*
X006821Y008412D01*
X006821Y008254D02*
X008116Y008254D01*
X008116Y008095D02*
X006715Y008095D01*
X006556Y007937D02*
X008116Y007937D01*
X008116Y007778D02*
X008056Y007778D01*
X007746Y007778D02*
X006398Y007778D01*
X006082Y007620D02*
X007643Y007620D01*
X007664Y007461D02*
X005923Y007461D01*
X005765Y007303D02*
X007541Y007303D01*
X007225Y007144D02*
X005641Y007144D01*
X005617Y006986D02*
X007067Y006986D01*
X006934Y006827D02*
X005924Y006827D01*
X005982Y006669D02*
X006716Y006669D01*
X006619Y006510D02*
X006140Y006510D01*
X006299Y006352D02*
X006644Y006352D01*
X006457Y006193D02*
X006959Y006193D01*
X007742Y006510D02*
X007824Y006510D01*
X006667Y004925D02*
X002097Y004925D01*
X002097Y005084D02*
X006351Y005084D01*
X006192Y005242D02*
X002097Y005242D01*
X002097Y005401D02*
X004048Y005401D01*
X004020Y005559D02*
X002097Y005559D01*
X002097Y005718D02*
X004063Y005718D01*
X003984Y005876D02*
X002097Y005876D01*
X002097Y006035D02*
X002944Y006035D01*
X002957Y006003D02*
X003030Y005930D01*
X003125Y005890D01*
X003228Y005890D01*
X003324Y005930D01*
X003396Y006003D01*
X003436Y006098D01*
X003436Y006201D01*
X003396Y006296D01*
X003356Y006336D01*
X003356Y007169D01*
X002962Y007562D01*
X002962Y007562D01*
X002857Y007667D01*
X002813Y007667D01*
X002772Y007708D01*
X002677Y007747D01*
X002574Y007747D01*
X002479Y007708D01*
X002406Y007635D01*
X002367Y007539D01*
X002367Y007436D01*
X002406Y007341D01*
X002479Y007268D01*
X002574Y007229D01*
X002677Y007229D01*
X002756Y007261D01*
X002997Y007020D01*
X002997Y006336D01*
X002957Y006296D01*
X002918Y006201D01*
X002918Y006098D01*
X002957Y006003D01*
X002918Y006193D02*
X002097Y006193D01*
X002097Y006352D02*
X002471Y006352D01*
X002405Y006510D02*
X002097Y006510D01*
X002097Y006669D02*
X002246Y006669D01*
X002491Y006986D02*
X002997Y006986D01*
X002997Y006827D02*
X002595Y006827D01*
X002866Y006669D02*
X002997Y006669D01*
X002997Y006510D02*
X002963Y006510D01*
X002938Y006352D02*
X002997Y006352D01*
X003356Y006352D02*
X003864Y006352D01*
X003864Y006193D02*
X003436Y006193D01*
X003410Y006035D02*
X003864Y006035D01*
X003743Y006510D02*
X003356Y006510D01*
X003356Y006669D02*
X003585Y006669D01*
X003549Y006827D02*
X003356Y006827D01*
X003356Y006986D02*
X003549Y006986D01*
X003549Y007144D02*
X003356Y007144D01*
X003222Y007303D02*
X003604Y007303D01*
X003654Y007352D02*
X003654Y007352D01*
X003763Y007461D02*
X003063Y007461D01*
X002905Y007620D02*
X003921Y007620D01*
X004279Y007094D02*
X004988Y007094D01*
X005933Y008039D01*
X006090Y008039D01*
X006405Y008354D01*
X006405Y008748D01*
X006248Y008905D01*
X005776Y008729D02*
X002452Y008729D01*
X002452Y008571D02*
X005659Y008571D01*
X005501Y008412D02*
X002452Y008412D01*
X002452Y008254D02*
X005342Y008254D01*
X005184Y008095D02*
X002456Y008095D01*
X002491Y007937D02*
X005025Y007937D01*
X004867Y007778D02*
X002416Y007778D01*
X002400Y007620D02*
X002097Y007620D01*
X002097Y007461D02*
X002367Y007461D01*
X002444Y007303D02*
X002097Y007303D01*
X002391Y007144D02*
X002873Y007144D01*
X002232Y007960D02*
X002232Y009771D01*
X002100Y009997D02*
X002097Y009997D01*
X002097Y010156D02*
X007008Y010156D01*
X007013Y010314D02*
X002097Y010314D01*
X002097Y010473D02*
X007013Y010473D01*
X006990Y010631D02*
X002097Y010631D01*
X002097Y010790D02*
X006933Y010790D01*
X006979Y010948D02*
X002097Y010948D01*
X002097Y011107D02*
X010005Y011107D01*
X010005Y011265D02*
X007926Y011265D01*
X007970Y011283D02*
X007874Y011244D01*
X006511Y011244D01*
X006415Y011283D01*
X006342Y011356D01*
X006303Y011452D01*
X006303Y011555D01*
X006342Y011651D01*
X006415Y011724D01*
X006511Y011764D01*
X007715Y011764D01*
X008148Y012197D01*
X008243Y012236D01*
X008347Y012236D01*
X008442Y012197D01*
X008515Y012123D01*
X008555Y012028D01*
X008555Y011924D01*
X008515Y011829D01*
X007970Y011283D01*
X008110Y011424D02*
X010005Y011424D01*
X010005Y011582D02*
X008269Y011582D01*
X008427Y011741D02*
X010005Y011741D01*
X010005Y011899D02*
X008544Y011899D01*
X008543Y012058D02*
X010005Y012058D01*
X010005Y012216D02*
X008395Y012216D01*
X008195Y012216D02*
X003027Y012216D01*
X003033Y012058D02*
X008009Y012058D01*
X007850Y011899D02*
X003033Y011899D01*
X003032Y011741D02*
X006455Y011741D01*
X006314Y011582D02*
X002873Y011582D01*
X002715Y011424D02*
X006314Y011424D01*
X006459Y011265D02*
X002097Y011265D01*
X002097Y011424D02*
X002221Y011424D01*
X002869Y012375D02*
X010005Y012375D01*
X010005Y012533D02*
X002710Y012533D01*
X002226Y012533D02*
X002097Y012533D01*
X002097Y012692D02*
X010005Y012692D01*
X010005Y012850D02*
X002097Y012850D01*
X002097Y013009D02*
X009455Y013009D01*
X009297Y013167D02*
X002097Y013167D01*
X002097Y013326D02*
X009147Y013326D01*
X009147Y013484D02*
X002097Y013484D01*
X002097Y013643D02*
X009147Y013643D01*
X009163Y013801D02*
X002097Y013801D01*
X002364Y009997D02*
X006850Y009997D01*
X006691Y009839D02*
X002484Y009839D01*
X002475Y009680D02*
X005430Y009680D01*
X005360Y009609D02*
X005360Y009609D01*
X005272Y009522D02*
X002452Y009522D01*
X002452Y009363D02*
X005202Y009363D01*
X005202Y009205D02*
X002452Y009205D01*
X002452Y009046D02*
X005302Y009046D01*
X005460Y008888D02*
X002452Y008888D01*
X004279Y007094D02*
X004122Y006937D01*
X004357Y006827D02*
X005469Y006827D01*
X005437Y006669D02*
X004328Y006669D01*
X004380Y006510D02*
X005520Y006510D01*
X005611Y006352D02*
X005792Y006352D01*
X005641Y006193D02*
X005950Y006193D01*
X006109Y006035D02*
X005554Y006035D01*
X005209Y006035D02*
X004667Y006035D01*
X004696Y005876D02*
X006147Y005876D01*
X006147Y005718D02*
X004608Y005718D01*
X004538Y005559D02*
X006147Y005559D01*
X006147Y005401D02*
X004510Y005401D01*
X003751Y004608D02*
X006644Y004608D01*
X006619Y004450D02*
X003720Y004450D01*
X003712Y004291D02*
X006716Y004291D01*
X006777Y004133D02*
X003712Y004133D01*
X003712Y003974D02*
X006721Y003974D01*
X006697Y003816D02*
X003712Y003816D01*
X003712Y003657D02*
X006799Y003657D01*
X006698Y004767D02*
X003666Y004767D01*
X002409Y004450D02*
X002369Y004450D01*
X002369Y004291D02*
X002409Y004291D01*
X002409Y004133D02*
X002369Y004133D01*
X002369Y003974D02*
X002409Y003974D01*
X003604Y002706D02*
X003694Y002706D01*
X003694Y002548D02*
X003604Y002548D01*
X003604Y002389D02*
X003694Y002389D01*
X003694Y002231D02*
X003604Y002231D01*
X003997Y002706D02*
X010005Y002706D01*
X010005Y002548D02*
X006165Y002548D01*
X006165Y002389D02*
X007841Y002389D01*
X007961Y002389D02*
X008325Y002389D01*
X008166Y002231D02*
X008141Y002231D01*
X008047Y001914D02*
X008669Y001914D01*
X008709Y001914D02*
X009692Y001914D01*
X009692Y002072D02*
X009732Y002072D01*
X009732Y002231D02*
X009692Y002231D01*
X009692Y002389D02*
X009732Y002389D01*
X009348Y002389D02*
X009052Y002389D01*
X008709Y002389D02*
X008669Y002389D01*
X008669Y002231D02*
X008709Y002231D01*
X008709Y002072D02*
X008669Y002072D01*
X008084Y001755D02*
X007834Y001755D01*
X007901Y002134D02*
X007429Y001661D01*
X005696Y001661D01*
X005618Y001740D01*
X005775Y001897D01*
X005775Y002055D01*
X006165Y002072D02*
X007529Y002072D01*
X007661Y002231D02*
X006165Y002231D01*
X006165Y001914D02*
X007370Y001914D01*
X005067Y001819D02*
X005067Y002055D01*
X004437Y001976D02*
X004358Y002055D01*
X005964Y009522D02*
X006374Y009522D01*
X006533Y009680D02*
X005805Y009680D01*
X009613Y009997D02*
X009653Y009997D01*
X009653Y010156D02*
X009613Y010156D01*
X009613Y010314D02*
X009653Y010314D01*
X009969Y013009D02*
X010005Y013009D01*
D14*
X008767Y013393D03*
X008689Y012606D03*
X008295Y011976D03*
X007822Y012055D03*
X007193Y012055D03*
X006563Y011504D03*
X006799Y010795D03*
X007193Y010795D03*
X007507Y011110D03*
X008137Y010559D03*
X007665Y009929D03*
X007665Y009063D03*
X008295Y009299D03*
X008610Y009141D03*
X008925Y008748D03*
X009476Y008748D03*
X010027Y008748D03*
X009161Y010480D03*
X009555Y010716D03*
X009161Y011031D03*
X007901Y007567D03*
X007507Y007645D03*
X006956Y007645D03*
X007507Y006622D03*
X007193Y006307D03*
X006878Y006464D03*
X006563Y005441D03*
X006878Y004496D03*
X006956Y003866D03*
X007271Y003315D03*
X007980Y003551D03*
X008767Y002842D03*
X007980Y001740D03*
X007901Y002134D03*
X007350Y002212D03*
X006878Y001976D03*
X005618Y001740D03*
X005067Y001819D03*
X004437Y001976D03*
X004437Y002842D03*
X004909Y003472D03*
X005224Y002842D03*
X004752Y004338D03*
X004279Y005519D03*
X004437Y005913D03*
X004437Y006228D03*
X004122Y006937D03*
X004122Y007724D03*
X003649Y007803D03*
X003256Y007567D03*
X002626Y007488D03*
X002232Y007960D03*
X002704Y008827D03*
X002704Y009378D03*
X002232Y009771D03*
X003649Y009456D03*
X004909Y010638D03*
X005381Y010401D03*
X005381Y009693D03*
X005618Y009299D03*
X006248Y008905D03*
X005933Y008512D03*
X005381Y007094D03*
X005696Y006701D03*
X005381Y006228D03*
X004752Y007724D03*
X003177Y006149D03*
X002704Y006464D03*
X002232Y006937D03*
X002862Y004968D03*
X002941Y004496D03*
X003492Y004575D03*
X003177Y003393D03*
X002232Y004653D03*
X003098Y001740D03*
X007822Y006307D03*
X008059Y006622D03*
X009161Y005992D03*
X005381Y011189D03*
X004909Y011582D03*
X004043Y013236D03*
X004279Y013708D03*
X004909Y013708D03*
X002783Y013630D03*
X002232Y013630D03*
D15*
X005539Y009535D02*
X005381Y009378D01*
X005381Y009220D01*
X005539Y009063D01*
X005696Y009063D01*
X006169Y008590D01*
X006169Y008433D01*
X006011Y008275D01*
X005854Y008275D01*
X004909Y007330D01*
X004122Y007330D01*
X003885Y007094D01*
X003885Y006858D01*
X004200Y006543D01*
X004200Y006149D01*
X004437Y005913D01*
X004279Y005756D02*
X004200Y005834D01*
X004200Y005913D01*
X004043Y006071D01*
X004043Y006464D01*
X003728Y006779D01*
X003728Y007173D01*
X004043Y007488D01*
X004830Y007488D01*
X005775Y008433D01*
X005854Y008433D01*
X005933Y008512D01*
X005854Y009141D02*
X006326Y009141D01*
X006641Y008827D01*
X006641Y008275D01*
X006169Y007803D01*
X006011Y007803D01*
X005381Y007173D01*
X005381Y007094D01*
X005696Y006701D02*
X006326Y006071D01*
X006326Y005362D01*
X006484Y005204D01*
X006641Y005204D01*
X006878Y004968D01*
X006878Y004496D01*
X007035Y004653D02*
X007035Y005047D01*
X006720Y005362D01*
X006641Y005362D01*
X006563Y005441D01*
X007035Y004653D02*
X007114Y004575D01*
X007114Y004417D01*
X006956Y004260D01*
X006956Y003866D01*
X007193Y006307D02*
X007271Y006386D01*
X007271Y006701D01*
X007429Y006858D01*
X007586Y006858D01*
X008295Y007567D01*
X008295Y008905D01*
X008059Y009141D01*
X008059Y009378D01*
X008137Y009456D01*
X008137Y009850D01*
X009004Y010716D01*
X009555Y010716D01*
X008610Y009141D02*
X008610Y007409D01*
X008059Y006858D01*
X008059Y006622D01*
X007586Y006622D02*
X008452Y007488D01*
X008452Y008984D01*
X008295Y009141D01*
X008295Y009299D01*
X007193Y010086D02*
X007193Y010795D01*
X007193Y010086D02*
X006405Y009299D01*
X005933Y009299D01*
X005696Y009535D01*
X005539Y009535D01*
X005618Y009299D02*
X005696Y009299D01*
X005854Y009141D01*
X007350Y007015D02*
X007114Y006779D01*
X007114Y006622D01*
X006956Y006464D01*
X006878Y006464D01*
X007350Y007015D02*
X007507Y007015D01*
X007901Y007409D01*
X007901Y007567D01*
X007586Y006622D02*
X007507Y006622D01*
X005381Y006228D02*
X004437Y006228D01*
X004279Y005756D02*
X004279Y005519D01*
X003177Y006149D02*
X003177Y007094D01*
X002783Y007488D01*
X002626Y007488D01*
X002232Y006937D02*
X002704Y006464D01*
D16*
X006563Y011504D02*
X007822Y011504D01*
X008295Y011976D01*
M02*
