%
M48
M72
T01C0.0118
T02C0.0400
%
T01
X3098Y1740
X3177Y3393
X2941Y4496
X2862Y4968
X2232Y4653
X3177Y6149
X2704Y6464
X2232Y6937
X2626Y7488
X2232Y7960
X2704Y8827
X2704Y9378
X2232Y9771
X3649Y9456
X3649Y7803
X3256Y7567
X4122Y7724
X4122Y6937
X4437Y6228
X4437Y5913
X4279Y5519
X3492Y4575
X4752Y4338
X4909Y3472
X5224Y2842
X5067Y1819
X5618Y1740
X4437Y1976
X4437Y2842
X6563Y5441
X6878Y4496
X6956Y3866
X7271Y3315
X7980Y3551
X8767Y2842
X7980Y1740
X7901Y2134
X7350Y2212
X6878Y1976
X9161Y5992
X8059Y6622
X7822Y6307
X7507Y6622
X7193Y6307
X6878Y6464
X6956Y7645
X7507Y7645
X7901Y7567
X7665Y9063
X8295Y9299
X8610Y9141
X8925Y8748
X9476Y8748
X10027Y8748
X9161Y10480
X9555Y10716
X9161Y11031
X8295Y11976
X7822Y12055
X7193Y12055
X6563Y11504
X6799Y10795
X7193Y10795
X7507Y11110
X8137Y10559
X7665Y9929
X6248Y8905
X5933Y8512
X5618Y9299
X5381Y9693
X5381Y10401
X4909Y10638
X5381Y11189
X4909Y11582
X4043Y13236
X4279Y13708
X4909Y13708
X2783Y13630
X2232Y13630
X4752Y7724
X5381Y7094
X5696Y6701
X5381Y6228
X8689Y12606
X8767Y13393
T02
X2468Y11976
X2389Y3945
X2389Y2921
X2389Y1897
X8689Y1897
X9712Y1897
X9712Y4496
X9633Y9850
X9712Y13551
M30
