G75*
%MOIN*%
%OFA0B0*%
%FSLAX24Y24*%
%IPPOS*%
%LPD*%
%AMOC8*
5,1,8,0,0,1.08239X$1,22.5*
%
%ADD10C,0.0000*%
%ADD11C,0.0060*%
D10*
X001917Y001425D02*
X001917Y014023D01*
X010185Y014023D01*
X010185Y001425D01*
X001917Y001425D01*
D11*
X002891Y001568D02*
X002947Y001511D01*
X002891Y001568D02*
X002891Y001681D01*
X002947Y001738D01*
X003004Y001738D01*
X003061Y001681D01*
X003061Y001568D01*
X003117Y001511D01*
X003174Y001511D01*
X003231Y001568D01*
X003231Y001681D01*
X003174Y001738D01*
X003231Y001880D02*
X003231Y002050D01*
X003174Y002106D01*
X002947Y002106D01*
X002891Y002050D01*
X002891Y001880D01*
X003231Y001880D01*
X003117Y002248D02*
X002891Y002248D01*
X002891Y002475D02*
X003117Y002475D01*
X003231Y002361D01*
X003117Y002248D01*
X003061Y002248D02*
X003061Y002475D01*
X003117Y002614D02*
X003061Y002670D01*
X003061Y002784D01*
X003004Y002840D01*
X002947Y002840D01*
X002891Y002784D01*
X002891Y002670D01*
X002947Y002614D01*
X003117Y002614D02*
X003174Y002614D01*
X003231Y002670D01*
X003231Y002784D01*
X003174Y002840D01*
X003174Y002982D02*
X002947Y002982D01*
X002891Y003039D01*
X002891Y003152D01*
X002947Y003209D01*
X002891Y003350D02*
X002891Y003577D01*
X002891Y003350D02*
X003231Y003350D01*
X003174Y003209D02*
X003231Y003152D01*
X003231Y003039D01*
X003174Y002982D01*
X003522Y002964D02*
X003522Y002850D01*
X003578Y002794D01*
X003692Y002850D02*
X003692Y002964D01*
X003635Y003020D01*
X003578Y003020D01*
X003522Y002964D01*
X003522Y003162D02*
X003635Y003275D01*
X003522Y003389D01*
X003862Y003389D01*
X003805Y003530D02*
X003578Y003530D01*
X003522Y003587D01*
X003522Y003700D01*
X003578Y003757D01*
X003692Y003757D01*
X003692Y003644D01*
X003805Y003757D02*
X003862Y003700D01*
X003862Y003587D01*
X003805Y003530D01*
X003862Y003898D02*
X003522Y004125D01*
X003862Y004125D01*
X003862Y004267D02*
X003862Y004437D01*
X003805Y004494D01*
X003578Y004494D01*
X003522Y004437D01*
X003522Y004267D01*
X003862Y004267D01*
X003862Y003898D02*
X003522Y003898D01*
X003231Y003930D02*
X003174Y003873D01*
X002947Y003873D01*
X002891Y003930D01*
X002891Y004044D01*
X002947Y004100D01*
X003061Y004100D01*
X003061Y003987D01*
X003174Y004100D02*
X003231Y004044D01*
X003231Y003930D01*
X003061Y004242D02*
X003061Y004469D01*
X003231Y004412D02*
X003061Y004242D01*
X002891Y004412D02*
X003231Y004412D01*
X003522Y003162D02*
X003862Y003162D01*
X003805Y003020D02*
X003862Y002964D01*
X003862Y002850D01*
X003805Y002794D01*
X003749Y002794D01*
X003692Y002850D01*
X004230Y002850D02*
X004287Y002794D01*
X004230Y002850D02*
X004230Y002964D01*
X004287Y003020D01*
X004344Y003020D01*
X004401Y002964D01*
X004401Y002850D01*
X004457Y002794D01*
X004514Y002794D01*
X004571Y002850D01*
X004571Y002964D01*
X004514Y003020D01*
X004571Y003162D02*
X004230Y003162D01*
X004344Y003275D01*
X004230Y003389D01*
X004571Y003389D01*
X004571Y003530D02*
X004571Y003700D01*
X004514Y003757D01*
X004287Y003757D01*
X004230Y003700D01*
X004230Y003530D01*
X004571Y003530D01*
X004571Y003898D02*
X004571Y004012D01*
X004571Y003955D02*
X004230Y003955D01*
X004230Y003898D02*
X004230Y004012D01*
X004287Y004144D02*
X004230Y004201D01*
X004230Y004314D01*
X004287Y004371D01*
X004514Y004371D01*
X004571Y004314D01*
X004571Y004201D01*
X004514Y004144D01*
X004287Y004144D01*
X004939Y004125D02*
X004939Y003898D01*
X005279Y003898D01*
X005223Y003757D02*
X005279Y003700D01*
X005279Y003587D01*
X005223Y003530D01*
X004996Y003530D01*
X004939Y003587D01*
X004939Y003700D01*
X004996Y003757D01*
X004939Y003389D02*
X005279Y003389D01*
X005279Y003162D02*
X004939Y003162D01*
X005052Y003275D01*
X004939Y003389D01*
X004996Y003020D02*
X004939Y002964D01*
X004939Y002850D01*
X004996Y002794D01*
X005109Y002850D02*
X005109Y002964D01*
X005052Y003020D01*
X004996Y003020D01*
X005109Y002850D02*
X005166Y002794D01*
X005223Y002794D01*
X005279Y002850D01*
X005279Y002964D01*
X005223Y003020D01*
X005648Y002964D02*
X005648Y002794D01*
X005988Y002794D01*
X005988Y002964D01*
X005931Y003020D01*
X005875Y003020D01*
X005818Y002964D01*
X005818Y002794D01*
X005818Y002964D02*
X005761Y003020D01*
X005704Y003020D01*
X005648Y002964D01*
X005704Y003162D02*
X005648Y003219D01*
X005648Y003332D01*
X005704Y003389D01*
X005931Y003389D01*
X005988Y003332D01*
X005988Y003219D01*
X005931Y003162D01*
X005704Y003162D01*
X005704Y003530D02*
X005648Y003587D01*
X005648Y003700D01*
X005704Y003757D01*
X005931Y003757D01*
X005988Y003700D01*
X005988Y003587D01*
X005931Y003530D01*
X005704Y003530D01*
X005988Y003898D02*
X005988Y004125D01*
X005988Y004012D02*
X005648Y004012D01*
X005704Y004267D02*
X005931Y004494D01*
X005704Y004494D01*
X005648Y004437D01*
X005648Y004323D01*
X005704Y004267D01*
X005931Y004267D01*
X005988Y004323D01*
X005988Y004437D01*
X005931Y004494D01*
X005279Y004494D02*
X005052Y004267D01*
X005109Y004323D02*
X004939Y004494D01*
X004939Y004267D02*
X005279Y004267D01*
X006637Y005587D02*
X006977Y005587D01*
X006977Y005417D01*
X006920Y005360D01*
X006807Y005360D01*
X006750Y005417D01*
X006750Y005587D01*
X006807Y005728D02*
X006750Y005785D01*
X006750Y005955D01*
X006693Y005955D02*
X006637Y005898D01*
X006637Y005842D01*
X006693Y005955D02*
X006977Y005955D01*
X006977Y006096D02*
X006750Y006323D01*
X006807Y006465D02*
X007034Y006465D01*
X007090Y006521D01*
X007090Y006635D01*
X007034Y006692D01*
X006920Y006692D01*
X006864Y006635D01*
X006977Y006635D01*
X006977Y006521D01*
X006864Y006521D01*
X006864Y006635D01*
X006807Y006692D02*
X006750Y006635D01*
X006750Y006521D01*
X006807Y006465D01*
X006977Y006323D02*
X006750Y006096D01*
X006807Y005728D02*
X006977Y005728D01*
X007350Y005483D02*
X007577Y005483D01*
X007577Y005596D02*
X007577Y005653D01*
X007577Y005596D02*
X007464Y005483D01*
X007464Y005341D02*
X007464Y005171D01*
X007407Y005114D01*
X007350Y005171D01*
X007350Y005341D01*
X007520Y005341D01*
X007577Y005284D01*
X007577Y005171D01*
X007690Y004925D02*
X007350Y004925D01*
X007350Y004869D02*
X007350Y004982D01*
X007407Y004727D02*
X007350Y004671D01*
X007350Y004557D01*
X007407Y004500D01*
X007520Y004500D01*
X007577Y004557D01*
X007577Y004671D01*
X007520Y004727D01*
X007407Y004727D01*
X007690Y004869D02*
X007690Y004925D01*
X007577Y004359D02*
X007577Y004189D01*
X007520Y004132D01*
X007464Y004189D01*
X007464Y004302D01*
X007407Y004359D01*
X007350Y004302D01*
X007350Y004132D01*
X007090Y004246D02*
X006977Y004132D01*
X006864Y004132D01*
X006750Y004246D01*
X006807Y004378D02*
X006750Y004434D01*
X006750Y004605D01*
X006750Y004746D02*
X006864Y004859D01*
X006977Y004859D01*
X007090Y004746D01*
X006977Y004605D02*
X006977Y004434D01*
X006920Y004378D01*
X006807Y004378D01*
X007520Y005790D02*
X007520Y006016D01*
X007577Y006158D02*
X007577Y006328D01*
X007520Y006385D01*
X007407Y006385D01*
X007350Y006328D01*
X007350Y006158D01*
X007237Y006158D02*
X007577Y006158D01*
X007577Y006526D02*
X007350Y006526D01*
X007350Y006640D02*
X007520Y006640D01*
X007577Y006696D01*
X007520Y006753D01*
X007350Y006753D01*
X007350Y006894D02*
X007577Y006894D01*
X007577Y006951D01*
X007520Y007008D01*
X007577Y007065D01*
X007520Y007121D01*
X007350Y007121D01*
X007350Y007008D02*
X007520Y007008D01*
X007520Y006640D02*
X007577Y006583D01*
X007577Y006526D01*
X007090Y006833D02*
X006750Y006833D01*
X006864Y006833D02*
X006750Y007003D01*
X006750Y007140D02*
X006977Y007140D01*
X006977Y007253D02*
X006977Y007310D01*
X006977Y007253D02*
X006864Y007140D01*
X006977Y007003D02*
X006864Y006833D01*
X006977Y007447D02*
X006977Y007560D01*
X007034Y007504D02*
X006807Y007504D01*
X006750Y007560D01*
X006750Y007692D02*
X007090Y007692D01*
X006977Y007863D02*
X006864Y007692D01*
X006750Y007863D01*
X006807Y007999D02*
X006750Y008056D01*
X006750Y008170D01*
X006807Y008226D01*
X006920Y008226D01*
X006977Y008170D01*
X006977Y008056D01*
X006920Y007999D01*
X006807Y007999D01*
X006807Y008368D02*
X006807Y008424D01*
X006750Y008424D01*
X006750Y008368D01*
X006807Y008368D01*
X006807Y008552D02*
X006750Y008609D01*
X006750Y008722D01*
X006807Y008779D01*
X006920Y008779D01*
X006977Y008722D01*
X006977Y008609D01*
X006920Y008552D01*
X006807Y008552D01*
X006864Y008920D02*
X006977Y009034D01*
X006977Y009090D01*
X006920Y009227D02*
X006977Y009284D01*
X006977Y009454D01*
X006693Y009454D01*
X006637Y009397D01*
X006637Y009341D01*
X006750Y009284D02*
X006807Y009227D01*
X006920Y009227D01*
X006750Y009284D02*
X006750Y009454D01*
X006637Y009595D02*
X006750Y009709D01*
X006750Y009652D01*
X006807Y009652D01*
X006807Y009709D01*
X006750Y009709D01*
X006807Y010209D02*
X006750Y010266D01*
X006750Y010379D01*
X006807Y010436D01*
X006807Y010578D02*
X006750Y010634D01*
X006750Y010748D01*
X006807Y010804D01*
X006920Y010946D02*
X006920Y011173D01*
X006920Y011314D02*
X006920Y011484D01*
X006864Y011541D01*
X006807Y011541D01*
X006750Y011484D01*
X006750Y011314D01*
X007090Y011314D01*
X007090Y011484D01*
X007034Y011541D01*
X006977Y011541D01*
X006920Y011484D01*
X007034Y011683D02*
X006920Y011796D01*
X006750Y011796D01*
X006920Y011796D02*
X007034Y011909D01*
X007090Y011909D01*
X007090Y011683D02*
X007034Y011683D01*
X006920Y012051D02*
X006920Y012278D01*
X006977Y012419D02*
X006920Y012476D01*
X006920Y012589D01*
X006864Y012646D01*
X006807Y012646D01*
X006750Y012589D01*
X006750Y012476D01*
X006807Y012419D01*
X006977Y012419D02*
X007034Y012419D01*
X007090Y012476D01*
X007090Y012589D01*
X007034Y012646D01*
X006977Y012787D02*
X007090Y012901D01*
X006977Y013014D01*
X006750Y013014D01*
X006920Y013014D02*
X006920Y012787D01*
X006977Y012787D02*
X006750Y012787D01*
X007350Y012603D02*
X007464Y012717D01*
X007577Y012717D01*
X007690Y012603D01*
X007634Y012462D02*
X007577Y012462D01*
X007350Y012235D01*
X007350Y012462D01*
X007634Y012462D02*
X007690Y012405D01*
X007690Y012292D01*
X007634Y012235D01*
X007634Y012094D02*
X007407Y011867D01*
X007350Y011923D01*
X007350Y012037D01*
X007407Y012094D01*
X007634Y012094D01*
X007690Y012037D01*
X007690Y011923D01*
X007634Y011867D01*
X007407Y011867D01*
X007350Y011725D02*
X007350Y011498D01*
X007577Y011725D01*
X007634Y011725D01*
X007690Y011669D01*
X007690Y011555D01*
X007634Y011498D01*
X007690Y011244D02*
X007350Y011244D01*
X007350Y011357D02*
X007350Y011130D01*
X007350Y010932D02*
X007690Y010932D01*
X007520Y010762D01*
X007520Y010989D01*
X007577Y011130D02*
X007690Y011244D01*
X007350Y010620D02*
X007350Y010393D01*
X007350Y010507D02*
X007690Y010507D01*
X007577Y010393D01*
X007634Y010252D02*
X007407Y010252D01*
X007350Y010195D01*
X007350Y010082D01*
X007407Y010025D01*
X007634Y010252D01*
X007690Y010195D01*
X007690Y010082D01*
X007634Y010025D01*
X007407Y010025D01*
X007350Y009884D02*
X007350Y009657D01*
X007577Y009884D01*
X007634Y009884D01*
X007690Y009827D01*
X007690Y009714D01*
X007634Y009657D01*
X007690Y009525D02*
X007577Y009411D01*
X007464Y009411D01*
X007350Y009525D01*
X007350Y008902D02*
X007350Y008675D01*
X007350Y008788D02*
X007690Y008788D01*
X007577Y008675D01*
X007577Y008533D02*
X007350Y008420D01*
X007577Y008306D01*
X007520Y008165D02*
X007464Y008165D01*
X007464Y007938D01*
X007520Y007938D02*
X007407Y007938D01*
X007350Y007995D01*
X007350Y008108D01*
X007520Y008165D02*
X007577Y008108D01*
X007577Y007995D01*
X007520Y007938D01*
X007577Y007801D02*
X007577Y007745D01*
X007464Y007631D01*
X007577Y007631D02*
X007350Y007631D01*
X006977Y008920D02*
X006750Y008920D01*
X006807Y010209D02*
X007034Y010209D01*
X007090Y010266D01*
X007090Y010379D01*
X007034Y010436D01*
X007034Y010578D02*
X006807Y010578D01*
X007034Y010578D02*
X007090Y010634D01*
X007090Y010748D01*
X007034Y010804D01*
X008688Y012975D02*
X008915Y012975D01*
X008801Y012975D02*
X008801Y012635D01*
X009056Y012635D02*
X009056Y012862D01*
X009170Y012975D01*
X009283Y012862D01*
X009283Y012635D01*
X009424Y012692D02*
X009481Y012635D01*
X009651Y012635D01*
X009651Y012975D01*
X009481Y012975D01*
X009424Y012918D01*
X009424Y012862D01*
X009481Y012805D01*
X009651Y012805D01*
X009793Y012748D02*
X009793Y012975D01*
X010020Y012975D02*
X010020Y012748D01*
X009906Y012635D01*
X009793Y012748D01*
X009481Y012805D02*
X009424Y012748D01*
X009424Y012692D01*
X009283Y012805D02*
X009056Y012805D01*
X009324Y010770D02*
X009267Y010714D01*
X009267Y010657D01*
X009324Y010600D01*
X009267Y010544D01*
X009267Y010487D01*
X009324Y010430D01*
X009437Y010430D01*
X009494Y010487D01*
X009380Y010600D02*
X009324Y010600D01*
X009324Y010770D02*
X009437Y010770D01*
X009494Y010714D01*
X009635Y010714D02*
X009692Y010770D01*
X009805Y010770D01*
X009862Y010714D01*
X009862Y010487D01*
X009805Y010430D01*
X009692Y010430D01*
X009635Y010487D01*
X009635Y010600D01*
X009749Y010600D01*
X009849Y003920D02*
X009793Y003863D01*
X009849Y003920D02*
X009963Y003920D01*
X010020Y003863D01*
X010020Y003807D01*
X009963Y003750D01*
X009849Y003750D01*
X009793Y003693D01*
X009793Y003636D01*
X009849Y003580D01*
X009963Y003580D01*
X010020Y003636D01*
X009651Y003636D02*
X009595Y003580D01*
X009481Y003580D01*
X009424Y003636D01*
X009424Y003863D01*
X009481Y003920D01*
X009595Y003920D01*
X009651Y003863D01*
X009651Y003636D01*
X009283Y003580D02*
X009056Y003580D01*
X008915Y003580D02*
X008915Y003807D01*
X008801Y003920D01*
X008688Y003807D01*
X008688Y003580D01*
X008546Y003580D02*
X008546Y003920D01*
X008376Y003920D01*
X008319Y003863D01*
X008319Y003750D01*
X008376Y003693D01*
X008546Y003693D01*
X008433Y003693D02*
X008319Y003580D01*
X008688Y003750D02*
X008915Y003750D01*
X009283Y003920D02*
X009283Y003580D01*
X009402Y002896D02*
X009516Y002896D01*
X009573Y002840D01*
X009714Y002840D02*
X009771Y002896D01*
X009884Y002896D01*
X009941Y002840D01*
X009941Y002613D01*
X009884Y002556D01*
X009771Y002556D01*
X009714Y002613D01*
X009714Y002726D01*
X009827Y002726D01*
X009573Y002556D02*
X009346Y002783D01*
X009346Y002840D01*
X009402Y002896D01*
X009346Y002556D02*
X009573Y002556D01*
X008917Y002613D02*
X008861Y002556D01*
X008747Y002556D01*
X008690Y002613D01*
X008690Y002726D01*
X008804Y002726D01*
X008917Y002613D02*
X008917Y002840D01*
X008861Y002896D01*
X008747Y002896D01*
X008690Y002840D01*
X008549Y002783D02*
X008435Y002896D01*
X008435Y002556D01*
X008322Y002556D02*
X008549Y002556D01*
X003382Y011056D02*
X003268Y011170D01*
X003268Y011396D01*
X003127Y011340D02*
X003127Y011113D01*
X003070Y011056D01*
X002957Y011056D01*
X002900Y011113D01*
X002900Y011340D01*
X002957Y011396D01*
X003070Y011396D01*
X003127Y011340D01*
X002759Y011396D02*
X002759Y011113D01*
X002702Y011056D01*
X002588Y011056D01*
X002532Y011113D01*
X002532Y011396D01*
X002390Y011396D02*
X002163Y011396D01*
X002277Y011396D02*
X002277Y011056D01*
X003382Y011056D02*
X003495Y011170D01*
X003495Y011396D01*
M02*
